<?xml version="1.0" encoding="utf-8"?>
<!-- Generator: Adobe Illustrator 24.0.0, SVG Export Plug-In . SVG Version: 6.00 Build 0)  -->
<svg version="1.1" id="Layer_1" xmlns="http://www.w3.org/2000/svg" xmlns:xlink="http://www.w3.org/1999/xlink" x="0px" y="0px"
	 viewBox="0 0 50 50" style="enable-background:new 0 0 50 50;" xml:space="preserve">
<style type="text/css">
	.st0{opacity:0.3;fill:#383838;}
</style>
<path class="st0" d="M33.5,41c-1.3,0-1.9-1-2-1.3c-0.3-0.8-0.2-1.6,0.5-2.2l10.4-10.4H2.2C1,27.1,0,26.1,0,25c0-1.1,1-2.2,2.2-2.2
	l40.1,0L32,12.4c-0.9-0.9-0.6-1.9-0.5-2.2c0.3-0.7,0.9-1.4,2-1.4c0.5,0,1.1,0.3,1.5,0.7l14.7,14.7c0.4,0.4,0.4,1.1,0,1.6L35.1,40.4
	C34.6,40.8,34,41,33.5,41z"/>
</svg>
