<?xml version="1.0" encoding="utf-8"?>
<!-- Generator: Adobe Illustrator 24.0.0, SVG Export Plug-In . SVG Version: 6.00 Build 0)  -->
<svg version="1.1" id="Layer_1" xmlns="http://www.w3.org/2000/svg" xmlns:xlink="http://www.w3.org/1999/xlink" x="0px" y="0px"
	 viewBox="0 0 50 50" style="enable-background:new 0 0 50 50;" xml:space="preserve">
<style type="text/css">
	.st0{fill:#1FC1A9;}
</style>
<g>
	<path class="st0" d="M12.2,24.1c-2.7,0-5.3,1-7.2,2.7c0.6-7.3,4.8-13.6,10.8-17.1V4.2C6.5,8.4,0,17.7,0,28.6c0,3.6,0.7,7.1,2,10.3
		c0,0,0,0,0,0c0.1,0.3,0.3,0.7,0.5,1c0,0.1,0,0.1,0.1,0.2c0,0,0,0.1,0.1,0.1c1.9,3.3,5.4,5.6,9.5,5.6c0.3,0,0.7,0,1-0.1
		c0.4,0,0.8-0.1,1.2-0.1c5-1,8.7-5.4,8.7-10.7C23,29,18.2,24.1,12.2,24.1z"/>
	<path class="st0" d="M39.1,24.1c-2.7,0-5.3,1-7.2,2.7c0.6-7.3,4.8-13.6,10.8-17.1V4.2C33.5,8.4,27,17.7,27,28.6
		c0,3.6,0.7,7.1,2,10.3c0,0,0,0,0,0c0.1,0.3,0.3,0.7,0.5,1c0,0.1,0,0.1,0.1,0.2c0,0,0,0.1,0.1,0.1c1.9,3.3,5.4,5.6,9.5,5.6
		c0.3,0,0.7,0,1-0.1c0.4,0,0.8-0.1,1.2-0.1c5-1,8.7-5.4,8.7-10.7C50,29,45.1,24.1,39.1,24.1z"/>
</g>
</svg>
