<?xml version="1.0" encoding="utf-8"?>
<!-- Generator: Adobe Illustrator 24.0.0, SVG Export Plug-In . SVG Version: 6.00 Build 0)  -->
<svg version="1.1" id="Layer_1" xmlns="http://www.w3.org/2000/svg" xmlns:xlink="http://www.w3.org/1999/xlink" x="0px" y="0px"
	 viewBox="0 0 50 50" enable-background="new 0 0 50 50" xml:space="preserve">
<g>
	<g>
		<g>
			<path fill="#FFFFFF" d="M29,43.4h-15c-0.2,0-0.4-0.2-0.4-0.4v-9.8c-3.6-2.6-5.7-6.7-5.7-11c0-8,6.9-14.3,15.1-13.5
				c0.2,0,0.4,0.2,0.4,0.5c0,0.2-0.2,0.4-0.5,0.4C15.3,8.6,8.8,14.6,8.8,22.1c0,4.2,2.1,8.1,5.5,10.5c0.1,0.1,0.2,0.2,0.2,0.3v9.6
				h14.2v-9.6c0-0.1,0.1-0.3,0.2-0.3c3.4-2.4,5.5-6.3,5.5-10.5c0-0.6,0-1.3-0.1-1.9c0-0.2,0.1-0.4,0.3-0.5c0.2,0,0.4,0.1,0.5,0.3
				c0.1,0.7,0.2,1.4,0.2,2.1c0,4.4-2.1,8.5-5.7,11V43C29.5,43.2,29.3,43.4,29,43.4z"/>
		</g>
		<g>
			<path fill="#FFFFFF" d="M31,37.8H12.1c-0.2,0-0.4-0.2-0.4-0.4c0-0.2,0.2-0.4,0.4-0.4H31c0.2,0,0.4,0.2,0.4,0.4
				C31.4,37.6,31.2,37.8,31,37.8z"/>
		</g>
		<g>
			<path fill="#FFFFFF" d="M31,40.3H12.1c-0.2,0-0.4-0.2-0.4-0.4c0-0.2,0.2-0.4,0.4-0.4H31c0.2,0,0.4,0.2,0.4,0.4
				C31.4,40.1,31.2,40.3,31,40.3z"/>
		</g>
		<g>
			<path fill="#FFFFFF" d="M26.4,47.8h-9.8c-0.2,0-0.4-0.2-0.4-0.4V43c0-0.2,0.2-0.4,0.4-0.4h9.8c0.2,0,0.4,0.2,0.4,0.4v4.4
				C26.8,47.6,26.7,47.8,26.4,47.8z M17.1,47H26v-3.6h-8.9V47z"/>
		</g>
		<g>
			<path fill="#FFFFFF" d="M23.1,50H20c-0.2,0-0.4-0.2-0.4-0.4v-2.2c0-0.2,0.2-0.4,0.4-0.4h3.1c0.2,0,0.4,0.2,0.4,0.4v2.2
				C23.5,49.8,23.4,50,23.1,50z M20.4,49.2h2.3v-1.3h-2.3V49.2z"/>
		</g>
		<g>
			<path fill="#FFFFFF" d="M21.9,37.8h-0.7c-0.2,0-0.4-0.1-0.4-0.3l-2.9-12.1c0-0.1,0-0.3,0.1-0.4c0.1-0.1,0.2-0.1,0.4-0.1l1.3,0.3
				l1.5-3.9c0.1-0.2,0.2-0.3,0.4-0.3c0,0,0,0,0,0c0.2,0,0.3,0.1,0.4,0.3l1.5,3.9l1.3-0.3c0.1,0,0.3,0,0.4,0.1
				c0.1,0.1,0.1,0.2,0.1,0.4l-2.9,12.1C22.3,37.7,22.1,37.8,21.9,37.8z M21.5,37L21.5,37l2.8-11.1l-1.1,0.2c-0.2,0-0.4-0.1-0.5-0.3
				l-1.2-3.2l-1.2,3.2c-0.1,0.2-0.3,0.3-0.5,0.3l-1-0.2L21.5,37z"/>
		</g>
		<g>
			<g>
				<path fill="#FFFFFF" d="M31.4,22.7h-1.6c-0.2,0-0.4-0.1-0.4-0.4l-0.4-2.7c-0.4-0.1-0.8-0.2-1.1-0.3l-1.7,2.2
					c-0.1,0.2-0.4,0.2-0.5,0.1l-1.4-0.8c-0.2-0.1-0.3-0.3-0.2-0.5l1-2.6c-0.3-0.3-0.6-0.5-0.8-0.8l-2.6,1c-0.2,0.1-0.4,0-0.5-0.2
					l-0.8-1.4c-0.1-0.2-0.1-0.4,0.1-0.5l2.2-1.7c-0.1-0.4-0.2-0.8-0.3-1.1l-2.7-0.4c-0.2,0-0.3-0.2-0.3-0.4v-1.6
					c0-0.2,0.1-0.4,0.3-0.4l2.7-0.4c0.1-0.4,0.2-0.8,0.3-1.1l-2.2-1.7c-0.2-0.1-0.2-0.4-0.1-0.5L21.2,5c0.1-0.2,0.3-0.3,0.5-0.2
					l2.6,1c0.3-0.3,0.5-0.6,0.8-0.8l-1-2.6c-0.1-0.2,0-0.4,0.2-0.5l1.4-0.8c0.2-0.1,0.4-0.1,0.5,0.1l1.7,2.2
					c0.4-0.1,0.8-0.2,1.1-0.3l0.4-2.7c0-0.2,0.2-0.3,0.4-0.3h1.6c0.2,0,0.4,0.1,0.4,0.4l0.4,2.7c0.4,0.1,0.8,0.2,1.1,0.3l1.7-2.2
					c0.1-0.2,0.4-0.2,0.5-0.1L37,1.9c0.2,0.1,0.3,0.3,0.2,0.5l-1,2.6c0.3,0.3,0.6,0.5,0.8,0.8l2.6-1c0.2-0.1,0.4,0,0.5,0.2l0.8,1.4
					c0.1,0.2,0.1,0.4-0.1,0.5l-2.2,1.7c0.1,0.4,0.2,0.8,0.3,1.1l2.7,0.4c0.2,0,0.3,0.2,0.3,0.4v1.6c0,0.2-0.1,0.4-0.3,0.4L38.9,13
					c-0.1,0.4-0.2,0.8-0.3,1.1l2.2,1.7c0.2,0.1,0.2,0.4,0.1,0.5l-0.8,1.4c-0.1,0.2-0.3,0.3-0.5,0.2l-2.6-1c-0.3,0.3-0.5,0.6-0.8,0.8
					l1,2.6c0.1,0.2,0,0.4-0.2,0.5l-1.4,0.8c-0.2,0.1-0.4,0.1-0.5-0.1l-1.7-2.2c-0.4,0.1-0.8,0.2-1.2,0.3l-0.4,2.7
					C31.8,22.6,31.6,22.7,31.4,22.7z M30.2,21.9h0.9l0.4-2.7c0-0.2,0.2-0.3,0.3-0.3c0.5-0.1,1.1-0.2,1.6-0.4c0.2-0.1,0.4,0,0.5,0.1
					l1.7,2.1l0.7-0.4l-1-2.5c-0.1-0.2,0-0.4,0.1-0.5c0.4-0.4,0.8-0.7,1.1-1.1c0.1-0.1,0.3-0.2,0.5-0.1l2.5,1l0.4-0.7l-2.1-1.7
					c-0.1-0.1-0.2-0.3-0.1-0.5c0.2-0.5,0.3-1,0.4-1.6c0-0.2,0.2-0.3,0.3-0.3l2.7-0.4v-0.9l-2.7-0.4c-0.2,0-0.3-0.2-0.3-0.3
					c-0.1-0.5-0.2-1-0.4-1.6c-0.1-0.2,0-0.4,0.1-0.5L40,6.5l-0.4-0.7l-2.5,1c-0.2,0.1-0.4,0-0.5-0.1c-0.3-0.4-0.7-0.8-1.1-1.1
					c-0.1-0.1-0.2-0.3-0.1-0.5l1-2.5L35.6,2l-1.7,2.1c-0.1,0.1-0.3,0.2-0.5,0.1c-0.5-0.2-1.1-0.3-1.6-0.4c-0.2,0-0.3-0.2-0.3-0.3
					l-0.4-2.7h-0.9l-0.4,2.7c0,0.2-0.2,0.3-0.3,0.3c-0.5,0.1-1,0.2-1.6,0.4c-0.2,0.1-0.4,0-0.5-0.1L25.8,2L25,2.4L26,5
					c0.1,0.2,0,0.4-0.1,0.5c-0.4,0.3-0.8,0.7-1.1,1.1c-0.1,0.1-0.3,0.2-0.5,0.1l-2.5-1l-0.4,0.7l2.1,1.7c0.1,0.1,0.2,0.3,0.1,0.5
					c-0.2,0.5-0.3,1-0.4,1.6c0,0.2-0.2,0.3-0.3,0.3l-2.7,0.4v0.9l2.7,0.4c0.2,0,0.3,0.2,0.3,0.3c0.1,0.5,0.2,1.1,0.4,1.6
					c0.1,0.2,0,0.4-0.1,0.5l-2.1,1.7l0.4,0.7l2.5-1c0.2-0.1,0.4,0,0.5,0.1c0.3,0.4,0.7,0.8,1.1,1.1c0.1,0.1,0.2,0.3,0.1,0.5l-1,2.5
					l0.7,0.4l1.7-2.1c0.1-0.1,0.3-0.2,0.5-0.1c0.5,0.2,1,0.3,1.6,0.4c0.2,0,0.3,0.2,0.3,0.3L30.2,21.9z M30.7,15.8
					c-2.4,0-4.4-2-4.4-4.4c0-2.4,2-4.4,4.4-4.4c2.4,0,4.4,2,4.4,4.4C35.1,13.8,33.1,15.8,30.7,15.8z M30.7,7.7c-2,0-3.6,1.6-3.6,3.6
					c0,2,1.6,3.6,3.6,3.6c2,0,3.6-1.6,3.6-3.6C34.3,9.4,32.6,7.7,30.7,7.7z"/>
			</g>
		</g>
	</g>
</g>
</svg>
