<?xml version="1.0" encoding="utf-8"?>
<!-- Generator: Adobe Illustrator 24.0.0, SVG Export Plug-In . SVG Version: 6.00 Build 0)  -->
<svg version="1.1" id="Layer_1" xmlns="http://www.w3.org/2000/svg" xmlns:xlink="http://www.w3.org/1999/xlink" x="0px" y="0px"
	 viewBox="0 0 50 50" enable-background="new 0 0 50 50" xml:space="preserve">
<g>
	<g>
		<g>
			<g>
				<g>
					<path fill="#FFFFFF" d="M45.5,29.7h-41c-0.2,0-0.4-0.2-0.4-0.4V0.4C4.1,0.2,4.3,0,4.5,0h41c0.2,0,0.4,0.2,0.4,0.4v28.9
						C45.9,29.5,45.7,29.7,45.5,29.7z M4.9,28.9h40.2V0.8H4.9V28.9z"/>
				</g>
			</g>
			<g>
				<g>
					<path fill="#FFFFFF" d="M42.7,26.9H7.3c-0.2,0-0.4-0.2-0.4-0.4V3.2c0-0.2,0.2-0.4,0.4-0.4h35.4c0.2,0,0.4,0.2,0.4,0.4v23.3
						C43.1,26.7,42.9,26.9,42.7,26.9z M7.7,26.1h34.6V3.6H7.7V26.1z"/>
				</g>
			</g>
			<g>
				<g>
					<path fill="#FFFFFF" d="M31.3,35.5C31.3,35.5,31.3,35.5,31.3,35.5H18.7c-0.1,0-0.3-0.1-0.3-0.2c-0.1-0.1-0.1-0.2-0.1-0.4
						l1.9-5.8c0.1-0.2,0.2-0.3,0.4-0.3h8.9c0.2,0,0.3,0.1,0.4,0.3l1.8,5.7c0,0.1,0.1,0.1,0.1,0.2C31.7,35.3,31.5,35.5,31.3,35.5z
						 M19.3,34.7h11.5l-1.6-5h-8.3L19.3,34.7z"/>
				</g>
			</g>
			<g>
				<g>
					<path fill="#FFFFFF" d="M25,33.5c-0.7,0-1.3-0.6-1.3-1.3c0-0.7,0.6-1.3,1.3-1.3c0.7,0,1.3,0.6,1.3,1.3
						C26.3,32.9,25.7,33.5,25,33.5z M25,31.7c-0.3,0-0.5,0.2-0.5,0.5c0,0.3,0.2,0.5,0.5,0.5c0.3,0,0.5-0.2,0.5-0.5
						C25.5,31.9,25.3,31.7,25,31.7z"/>
				</g>
			</g>
			<g>
				<g>
					<path fill="#FFFFFF" d="M43.2,50C43.2,50,43.1,50,43.2,50H6.9c-0.1,0-0.2-0.1-0.3-0.1c-0.1-0.1-0.1-0.2-0.1-0.3L8.3,38
						c0-0.2,0.2-0.3,0.4-0.3h32.6c0.2,0,0.4,0.1,0.4,0.3l1.8,11.4c0,0,0,0.1,0,0.2C43.6,49.8,43.4,50,43.2,50z M7.3,49.2h35.3
						l-1.7-10.7H9.1L7.3,49.2z"/>
				</g>
			</g>
			<g>
				<g>
					<path fill="#FFFFFF" d="M38.7,40.9H11.3c-0.2,0-0.4-0.2-0.4-0.4c0-0.2,0.2-0.4,0.4-0.4h27.3c0.2,0,0.4,0.2,0.4,0.4
						C39.1,40.7,38.9,40.9,38.7,40.9z"/>
				</g>
			</g>
			<g>
				<g>
					<path fill="#FFFFFF" d="M38.7,44.3H11.3c-0.2,0-0.4-0.2-0.4-0.4s0.2-0.4,0.4-0.4h27.3c0.2,0,0.4,0.2,0.4,0.4
						S38.9,44.3,38.7,44.3z"/>
				</g>
			</g>
			<g>
				<g>
					<path fill="#FFFFFF" d="M38,47.5h-6.9c-0.2,0-0.4-0.2-0.4-0.4s0.2-0.4,0.4-0.4H38c0.2,0,0.4,0.2,0.4,0.4S38.2,47.5,38,47.5z
						 M18.2,47.5h-6.8c-0.2,0-0.4-0.2-0.4-0.4s0.2-0.4,0.4-0.4h6.8c0.2,0,0.4,0.2,0.4,0.4S18.4,47.5,18.2,47.5z"/>
				</g>
			</g>
			<g>
				<g>
					<path fill="#FFFFFF" d="M28.6,47.5h-9c-0.2,0-0.4-0.2-0.4-0.4s0.2-0.4,0.4-0.4h9c0.2,0,0.4,0.2,0.4,0.4S28.9,47.5,28.6,47.5z"
						/>
				</g>
			</g>
		</g>
	</g>
	<g>
		<g>
			<path fill="#FFFFFF" d="M30.5,18.7C30.5,18.7,30.5,18.7,30.5,18.7l-13.3-1c-0.2,0-0.3-0.2-0.3-0.4v-3c0-0.2,0.2-0.4,0.3-0.4
				l13.3-1c0.1,0,0.2,0,0.3,0.1c0.1,0.1,0.1,0.2,0.1,0.3v5.1c0,0.1,0,0.2-0.1,0.3C30.7,18.7,30.6,18.7,30.5,18.7z M17.6,17l12.5,1
				v-4.3l-12.5,1V17z"/>
		</g>
		<g>
			<path fill="#FFFFFF" d="M17.3,17.2C17.3,17.2,17.2,17.2,17.3,17.2l-1.7-0.1c-0.2,0-0.3-0.2-0.3-0.4V15c0-0.2,0.1-0.4,0.3-0.4
				l1.7-0.2c0.1,0,0.2,0,0.3,0.1c0.1,0.1,0.1,0.2,0.1,0.3v2c0,0.1,0,0.2-0.1,0.3C17.5,17.2,17.4,17.2,17.3,17.2z M16,16.3l0.9,0.1
				v-1.2L16,15.4V16.3z"/>
		</g>
		<g>
			<path fill="#FFFFFF" d="M20.8,16.3c-0.2,0-0.4-0.2-0.4-0.4V14c0-0.2,0.2-0.4,0.4-0.4s0.4,0.2,0.4,0.4v1.9
				C21.2,16.1,21,16.3,20.8,16.3z"/>
		</g>
		<g>
			<path fill="#FFFFFF" d="M32,13.9c-0.1,0-0.3-0.1-0.3-0.3c0-0.2,0.1-0.3,0.3-0.3l3.4-0.4c0.2,0,0.3,0.1,0.3,0.3
				c0,0.2-0.1,0.3-0.3,0.3L32,13.9C32,13.9,32,13.9,32,13.9z"/>
		</g>
		<g>
			<path fill="#FFFFFF" d="M35.4,18.5C35.4,18.5,35.4,18.5,35.4,18.5L31.9,18c-0.2,0-0.3-0.2-0.3-0.3c0-0.2,0.2-0.3,0.3-0.3l3.5,0.4
				c0.2,0,0.3,0.2,0.3,0.3C35.7,18.3,35.6,18.5,35.4,18.5z"/>
		</g>
		<g>
			<path fill="#FFFFFF" d="M32,15.2c-0.2,0-0.3-0.1-0.3-0.3c0-0.2,0.1-0.3,0.3-0.3l2.2-0.1c0.2,0,0.3,0.1,0.3,0.3s-0.1,0.3-0.3,0.3
				L32,15.2C32,15.2,32,15.2,32,15.2z"/>
		</g>
		<g>
			<path fill="#FFFFFF" d="M34.1,16.8C34.1,16.8,34.1,16.8,34.1,16.8l-2.2-0.2c-0.2,0-0.3-0.2-0.3-0.3c0-0.2,0.2-0.3,0.3-0.3
				l2.1,0.2c0.2,0,0.3,0.2,0.3,0.3C34.4,16.7,34.2,16.8,34.1,16.8z"/>
		</g>
	</g>
	<g>
		<path fill="#FFFFFF" d="M19.6,20.5h-1.3c-0.1,0-0.3-0.1-0.3-0.3v-2.9c0-0.1,0-0.1,0.1-0.2s0.1-0.1,0.2-0.1l1.3,0.1
			c0.1,0,0.2,0.1,0.2,0.2l0,2.8c0,0.1,0,0.1-0.1,0.2S19.7,20.5,19.6,20.5z M18.5,20h0.8l0-2.3l-0.8-0.1V20z"/>
	</g>
</g>
</svg>
