<?xml version="1.0" encoding="utf-8"?>
<!-- Generator: Adobe Illustrator 24.0.0, SVG Export Plug-In . SVG Version: 6.00 Build 0)  -->
<svg version="1.1" id="Layer_1" xmlns="http://www.w3.org/2000/svg" xmlns:xlink="http://www.w3.org/1999/xlink" x="0px" y="0px"
	 viewBox="0 0 50 50" enable-background="new 0 0 50 50" xml:space="preserve">
<g>
	<g>
		<g id="XMLID_606_">
			<g>
				<g>
					<path fill="#FFFFFF" d="M24.9,15.9c-2.5,0-4.4-2-4.4-4.5c0-2.5,2-4.5,4.4-4.5c2.5,0,4.5,2,4.5,4.5
						C29.3,13.9,27.3,15.9,24.9,15.9z M24.9,7.8c-2,0-3.6,1.6-3.6,3.6c0,2,1.6,3.6,3.6,3.6c2,0,3.6-1.6,3.6-3.6
						C28.5,9.4,26.9,7.8,24.9,7.8z"/>
				</g>
				<g>
					<path fill="#FFFFFF" d="M36.1,50H13.9c-0.2,0-0.4-0.2-0.4-0.4v-2.4c0-0.2,0.2-0.4,0.4-0.4h22.1c0.2,0,0.4,0.2,0.4,0.4v2.4
						C36.5,49.8,36.3,50,36.1,50z M14.3,49.2h21.3v-1.6H14.3V49.2z"/>
				</g>
				<g>
					<path fill="#FFFFFF" d="M31.8,47.6H18.2c-0.1,0-0.2-0.1-0.3-0.2c-0.1-0.1-0.1-0.2-0.1-0.4l2-7.6c0-0.2,0.2-0.3,0.4-0.3h9.5
						c0.2,0,0.3,0.1,0.4,0.3l2,7.6c0,0.1,0,0.3-0.1,0.4C32,47.6,31.9,47.6,31.8,47.6z M18.8,46.8h12.4l-1.8-6.7h-8.9L18.8,46.8z"/>
				</g>
				<g>
					<path fill="#FFFFFF" d="M43.6,40.1H6.4c-1.5,0-2.7-1.2-2.7-2.7v-4.5c0-0.2,0.2-0.4,0.4-0.4s0.4,0.2,0.4,0.4
						c0,0.9,0.7,1.6,1.6,1.6h38c0.9,0,1.6-0.7,1.6-1.6c0-0.2,0.2-0.4,0.4-0.4s0.4,0.2,0.4,0.4v4.5C46.3,38.8,45.1,40.1,43.6,40.1z
						 M4.5,34.6v2.7c0,1.1,0.9,1.9,1.9,1.9h37.2c1.1,0,1.9-0.9,1.9-1.9v-2.7c-0.4,0.4-1,0.6-1.6,0.6H6C5.4,35.2,4.9,35,4.5,34.6z
						 M25,38.5c-0.7,0-1.3-0.6-1.3-1.3c0-0.7,0.6-1.3,1.3-1.3c0.7,0,1.3,0.6,1.3,1.3C26.3,37.9,25.7,38.5,25,38.5z M25,36.8
						c-0.3,0-0.5,0.2-0.5,0.5c0,0.3,0.2,0.5,0.5,0.5c0.3,0,0.5-0.2,0.5-0.5C25.5,37,25.3,36.8,25,36.8z"/>
				</g>
				<g>
					<path fill="#FFFFFF" d="M11.7,29.4H8.4C8.2,29.4,8,29.2,8,29v-1.8c0-0.2,0.2-0.4,0.4-0.4h3.2c0.2,0,0.4,0.2,0.4,0.4V29
						C12.1,29.2,11.9,29.4,11.7,29.4z M8.8,28.6h2.4v-1H8.8V28.6z"/>
				</g>
				<g>
					<path fill="#FFFFFF" d="M28.1,30.3h-6.4c-0.2,0-0.4-0.2-0.4-0.4v-3.6c0-0.2,0.2-0.4,0.4-0.4h6.4c0.2,0,0.4,0.2,0.4,0.4v3.6
						C28.5,30.1,28.3,30.3,28.1,30.3z M22.1,29.4h5.5v-2.8h-5.5V29.4z"/>
				</g>
				<g>
					<path fill="#FFFFFF" d="M41.3,29.4h-3.2c-0.2,0-0.4-0.2-0.4-0.4v-1.8c0-0.2,0.2-0.4,0.4-0.4h3.2c0.2,0,0.4,0.2,0.4,0.4V29
						C41.7,29.2,41.5,29.4,41.3,29.4z M38.5,28.6h2.4v-1h-2.4V28.6z"/>
				</g>
				<g>
					<path fill="#FFFFFF" d="M25.7,22.8h-1.6c-0.2,0-0.4-0.1-0.4-0.3l-0.4-2.8c-0.4-0.1-0.8-0.2-1.2-0.3l-1.7,2.2
						c-0.1,0.2-0.4,0.2-0.5,0.1l-1.4-0.8c-0.2-0.1-0.3-0.3-0.2-0.5l1-2.6c-0.3-0.3-0.6-0.5-0.8-0.8l-2.6,1c-0.2,0.1-0.4,0-0.5-0.2
						l-0.8-1.4c-0.1-0.2-0.1-0.4,0.1-0.5l2.2-1.7c-0.1-0.4-0.2-0.8-0.3-1.2l-2.7-0.4c-0.2,0-0.3-0.2-0.3-0.4v-1.6
						c0-0.2,0.1-0.4,0.3-0.4l2.7-0.4c0.1-0.4,0.2-0.8,0.3-1.2l-2.2-1.7c-0.2-0.1-0.2-0.4-0.1-0.5L15.4,5c0.1-0.2,0.3-0.3,0.5-0.2
						l2.6,1C18.7,5.6,19,5.3,19.3,5l-1-2.6c-0.1-0.2,0-0.4,0.2-0.5l1.4-0.8C20,1,20.3,1.1,20.4,1.2l1.7,2.2c0.4-0.1,0.8-0.2,1.2-0.3
						l0.4-2.8c0-0.2,0.2-0.3,0.4-0.3h1.6c0.2,0,0.4,0.1,0.4,0.3l0.4,2.8c0.4,0.1,0.8,0.2,1.2,0.3l1.7-2.2c0.1-0.2,0.4-0.2,0.5-0.1
						l1.4,0.8c0.2,0.1,0.3,0.3,0.2,0.5l-1,2.6c0.3,0.3,0.6,0.5,0.8,0.8l2.6-1c0.2-0.1,0.4,0,0.5,0.2l0.8,1.4
						c0.1,0.2,0.1,0.4-0.1,0.5l-2.2,1.7C33,9,33.1,9.4,33.2,9.8l2.8,0.4c0.2,0,0.3,0.2,0.3,0.4v1.6c0,0.2-0.1,0.4-0.3,0.4L33.2,13
						c-0.1,0.4-0.2,0.8-0.3,1.2l2.2,1.7c0.2,0.1,0.2,0.4,0.1,0.5l-0.8,1.4c-0.1,0.2-0.3,0.2-0.5,0.2l-2.6-1
						c-0.3,0.3-0.6,0.6-0.8,0.8l1,2.6c0.1,0.2,0,0.4-0.2,0.5l-1.4,0.8c-0.2,0.1-0.4,0.1-0.5-0.1l-1.7-2.2c-0.4,0.1-0.8,0.2-1.2,0.3
						l-0.4,2.8C26,22.7,25.9,22.8,25.7,22.8z M24.4,22h0.9l0.4-2.7c0-0.2,0.2-0.3,0.3-0.3c0.6-0.1,1.1-0.2,1.6-0.4
						c0.2-0.1,0.4,0,0.5,0.1l1.7,2.1l0.8-0.4l-1-2.5c-0.1-0.2,0-0.4,0.1-0.5c0.4-0.3,0.8-0.7,1.1-1.1c0.1-0.1,0.3-0.2,0.5-0.1l2.5,1
						l0.4-0.8l-2.1-1.7c-0.1-0.1-0.2-0.3-0.1-0.5c0.2-0.5,0.3-1,0.4-1.6c0-0.2,0.2-0.3,0.3-0.3l2.7-0.4V11l-2.7-0.4
						c-0.2,0-0.3-0.2-0.3-0.3c-0.1-0.5-0.2-1.1-0.4-1.6c-0.1-0.2,0-0.4,0.1-0.5l2.1-1.7l-0.4-0.8l-2.5,1c-0.2,0.1-0.4,0-0.5-0.1
						c-0.3-0.4-0.7-0.8-1.1-1.2c-0.1-0.1-0.2-0.3-0.1-0.5l1-2.5L29.8,2l-1.7,2.1c-0.1,0.1-0.3,0.2-0.5,0.1c-0.5-0.2-1.1-0.3-1.6-0.4
						c-0.2,0-0.3-0.2-0.3-0.3l-0.4-2.7h-0.9L24,3.5c0,0.2-0.2,0.3-0.3,0.3c-0.5,0.1-1,0.2-1.6,0.4c-0.2,0.1-0.4,0-0.5-0.1L20,2
						l-0.8,0.4l1,2.5c0.1,0.2,0,0.4-0.1,0.5c-0.4,0.4-0.8,0.7-1.1,1.2c-0.1,0.1-0.3,0.2-0.5,0.1l-2.5-1l-0.4,0.8l2.1,1.7
						c0.1,0.1,0.2,0.3,0.1,0.5c-0.2,0.5-0.3,1.1-0.4,1.6c0,0.2-0.2,0.3-0.3,0.3L14.3,11v0.9l2.7,0.4c0.2,0,0.3,0.2,0.3,0.3
						c0.1,0.5,0.2,1.1,0.4,1.6c0.1,0.2,0,0.4-0.1,0.5l-2.1,1.7l0.4,0.8l2.5-1c0.2-0.1,0.4,0,0.5,0.1c0.4,0.4,0.7,0.8,1.1,1.1
						c0.1,0.1,0.2,0.3,0.1,0.5l-1,2.5l0.8,0.4l1.7-2.1c0.1-0.1,0.3-0.2,0.5-0.1c0.5,0.2,1,0.3,1.6,0.4c0.2,0,0.3,0.2,0.3,0.3
						L24.4,22z M24.9,15.9c-2.5,0-4.4-2-4.4-4.5c0-2.5,2-4.5,4.4-4.5c2.5,0,4.5,2,4.5,4.5C29.3,13.9,27.3,15.9,24.9,15.9z M24.9,7.8
						c-2,0-3.6,1.6-3.6,3.6c0,2,1.6,3.6,3.6,3.6c2,0,3.6-1.6,3.6-3.6C28.5,9.4,26.9,7.8,24.9,7.8z"/>
				</g>
				<g>
					<path fill="#FFFFFF" d="M44,35.2H6c-1.3,0-2.4-1.1-2.4-2.4V10.5c0-1.5,1.2-2.7,2.7-2.7H17c0.1,0,0.2,0,0.3,0.1l0.4,0.3
						c0.1,0.1,0.2,0.3,0.1,0.5c-0.2,0.5-0.3,1.1-0.4,1.6c0,0.2-0.2,0.3-0.3,0.3L14.3,11v0.9l2.7,0.4c0.2,0,0.3,0.2,0.3,0.3
						c0.1,0.5,0.2,1.1,0.4,1.6c0.1,0.2,0,0.4-0.1,0.5l-2.1,1.7l0.4,0.8l2.5-1c0.2-0.1,0.4,0,0.5,0.1c0.4,0.4,0.7,0.8,1.1,1.1
						c0.1,0.1,0.2,0.3,0.1,0.5l-1,2.5l0.8,0.4l1.7-2.1c0.1-0.1,0.3-0.2,0.5-0.1c0.5,0.2,1,0.3,1.6,0.4c0.2,0,0.3,0.2,0.3,0.3
						l0.4,2.7h0.9l0.4-2.7c0-0.2,0.2-0.3,0.3-0.3c0.6-0.1,1.1-0.2,1.6-0.4c0.2-0.1,0.4,0,0.5,0.1l1.7,2.1l0.8-0.4l-1-2.5
						c-0.1-0.2,0-0.4,0.1-0.5c0.4-0.3,0.8-0.7,1.1-1.1c0.1-0.1,0.3-0.2,0.5-0.1l2.5,1l0.4-0.8l-2.1-1.7c-0.1-0.1-0.2-0.3-0.1-0.5
						c0.2-0.5,0.3-1,0.4-1.6c0-0.2,0.2-0.3,0.3-0.3l2.7-0.4V11l-2.7-0.4c-0.2,0-0.3-0.2-0.3-0.3c-0.1-0.5-0.2-1.1-0.4-1.6
						c-0.1-0.2,0-0.4,0.1-0.5l0.4-0.3c0.1-0.1,0.2-0.1,0.3-0.1h10.8c1.5,0,2.7,1.2,2.7,2.7v22.3C46.3,34.2,45.3,35.2,44,35.2z
						 M6.4,8.6c-1.1,0-1.9,0.9-1.9,1.9v22.3c0,0.9,0.7,1.6,1.6,1.6h38c0.9,0,1.6-0.7,1.6-1.6V10.5c0-1.1-0.9-1.9-1.9-1.9H32.9l0,0
						C33,9,33.1,9.4,33.2,9.8l2.8,0.4c0.2,0,0.3,0.2,0.3,0.4v1.6c0,0.2-0.1,0.4-0.3,0.4L33.2,13c-0.1,0.4-0.2,0.8-0.3,1.2l2.2,1.7
						c0.2,0.1,0.2,0.4,0.1,0.5l-0.8,1.4c-0.1,0.2-0.3,0.2-0.5,0.2l-2.6-1c-0.3,0.3-0.6,0.6-0.8,0.8l1,2.6c0.1,0.2,0,0.4-0.2,0.5
						l-1.4,0.8c-0.2,0.1-0.4,0.1-0.5-0.1l-1.7-2.2c-0.4,0.1-0.8,0.2-1.2,0.3l-0.4,2.8c0,0.2-0.2,0.3-0.4,0.3h-1.6
						c-0.2,0-0.4-0.1-0.4-0.3l-0.4-2.8c-0.4-0.1-0.8-0.2-1.2-0.3l-1.7,2.2c-0.1,0.2-0.4,0.2-0.5,0.1l-1.4-0.8
						c-0.2-0.1-0.3-0.3-0.2-0.5l1-2.6c-0.3-0.3-0.6-0.5-0.8-0.8l-2.6,1c-0.2,0.1-0.4,0-0.5-0.2l-0.8-1.4c-0.1-0.2-0.1-0.4,0.1-0.5
						l2.2-1.7c-0.1-0.4-0.2-0.8-0.3-1.2l-2.7-0.4c-0.2,0-0.3-0.2-0.3-0.4v-1.6c0-0.2,0.1-0.4,0.3-0.4l2.7-0.4
						c0.1-0.4,0.2-0.8,0.3-1.2l0,0H6.4z M28.1,30.3h-6.4c-0.2,0-0.4-0.2-0.4-0.4v-3.6c0-0.2,0.2-0.4,0.4-0.4h6.4
						c0.2,0,0.4,0.2,0.4,0.4v3.6C28.5,30.1,28.3,30.3,28.1,30.3z M22.1,29.4h5.5v-2.8h-5.5V29.4z M41.3,29.4h-3.2
						c-0.2,0-0.4-0.2-0.4-0.4v-1.8c0-0.2,0.2-0.4,0.4-0.4h3.2c0.2,0,0.4,0.2,0.4,0.4V29C41.7,29.2,41.5,29.4,41.3,29.4z M38.5,28.6
						h2.4v-1h-2.4V28.6z M11.7,29.4H8.4C8.2,29.4,8,29.2,8,29v-1.8c0-0.2,0.2-0.4,0.4-0.4h3.2c0.2,0,0.4,0.2,0.4,0.4V29
						C12.1,29.2,11.9,29.4,11.7,29.4z M8.8,28.6h2.4v-1H8.8V28.6z"/>
				</g>
			</g>
			<g>
				<g>
					<path fill="#FFFFFF" d="M20.2,40.1H6.4c-1.5,0-2.7-1.2-2.7-2.7V10.5c0-1.5,1.2-2.7,2.7-2.7H17c0.2,0,0.4,0.2,0.4,0.4
						c0,0.2-0.2,0.4-0.4,0.4H6.4c-1.1,0-1.9,0.9-1.9,1.9v26.8c0,1.1,0.9,1.9,1.9,1.9h13.8c0.2,0,0.4,0.2,0.4,0.4
						S20.5,40.1,20.2,40.1z"/>
				</g>
				<g>
					<path fill="#FFFFFF" d="M43.6,40.1H29.8c-0.2,0-0.4-0.2-0.4-0.4s0.2-0.4,0.4-0.4h13.8c1.1,0,1.9-0.9,1.9-1.9V10.5
						c0-1.1-0.9-1.9-1.9-1.9H32.8c-0.2,0-0.4-0.2-0.4-0.4c0-0.2,0.2-0.4,0.4-0.4h10.8c1.5,0,2.7,1.2,2.7,2.7v26.8
						C46.3,38.8,45.1,40.1,43.6,40.1z"/>
				</g>
				<g>
					<path fill="#FFFFFF" d="M44,35.2H6c-1.3,0-2.4-1.1-2.4-2.4c0-0.2,0.2-0.4,0.4-0.4s0.4,0.2,0.4,0.4c0,0.9,0.7,1.6,1.6,1.6h38
						c0.9,0,1.6-0.7,1.6-1.6c0-0.2,0.2-0.4,0.4-0.4s0.4,0.2,0.4,0.4C46.3,34.2,45.3,35.2,44,35.2z"/>
				</g>
				<g>
					<path fill="#FFFFFF" d="M31.8,47.6c-0.2,0-0.3-0.1-0.4-0.3l-1.9-7.2h-8.9l-1.9,7.2c-0.1,0.2-0.3,0.4-0.5,0.3
						c-0.2-0.1-0.4-0.3-0.3-0.5l2-7.6c0-0.2,0.2-0.3,0.4-0.3h9.5c0.2,0,0.3,0.1,0.4,0.3l2,7.6c0.1,0.2-0.1,0.4-0.3,0.5
						C31.8,47.6,31.8,47.6,31.8,47.6z"/>
				</g>
				<g>
					<path fill="#FFFFFF" d="M25,38.5c-0.7,0-1.3-0.6-1.3-1.3c0-0.7,0.6-1.3,1.3-1.3c0.7,0,1.3,0.6,1.3,1.3
						C26.3,37.9,25.7,38.5,25,38.5z M25,36.8c-0.3,0-0.5,0.2-0.5,0.5c0,0.3,0.2,0.5,0.5,0.5c0.3,0,0.5-0.2,0.5-0.5
						C25.5,37,25.3,36.8,25,36.8z"/>
				</g>
				<g>
					<path fill="#FFFFFF" d="M36.1,50H13.9c-0.2,0-0.4-0.2-0.4-0.4v-2.4c0-0.2,0.2-0.4,0.4-0.4h22.1c0.2,0,0.4,0.2,0.4,0.4v2.4
						C36.5,49.8,36.3,50,36.1,50z M14.3,49.2h21.3v-1.6H14.3V49.2z"/>
				</g>
				<g>
					<path fill="#FFFFFF" d="M24.9,15.9c-2.5,0-4.4-2-4.4-4.5c0-2.5,2-4.5,4.4-4.5c2.5,0,4.5,2,4.5,4.5
						C29.3,13.9,27.3,15.9,24.9,15.9z M24.9,7.8c-2,0-3.6,1.6-3.6,3.6c0,2,1.6,3.6,3.6,3.6c2,0,3.6-1.6,3.6-3.6
						C28.5,9.4,26.9,7.8,24.9,7.8z"/>
				</g>
				<g>
					<path fill="#FFFFFF" d="M25.7,22.8h-1.6c-0.2,0-0.4-0.1-0.4-0.3l-0.4-2.8c-0.4-0.1-0.8-0.2-1.2-0.3l-1.7,2.2
						c-0.1,0.2-0.4,0.2-0.5,0.1l-1.4-0.8c-0.2-0.1-0.3-0.3-0.2-0.5l1-2.6c-0.3-0.3-0.6-0.5-0.8-0.8l-2.6,1c-0.2,0.1-0.4,0-0.5-0.2
						l-0.8-1.4c-0.1-0.2-0.1-0.4,0.1-0.5l2.2-1.7c-0.1-0.4-0.2-0.8-0.3-1.2l-2.7-0.4c-0.2,0-0.3-0.2-0.3-0.4v-1.6
						c0-0.2,0.1-0.4,0.3-0.4l2.7-0.4c0.1-0.4,0.2-0.8,0.3-1.2l-0.2-0.1c0,0,0,0,0,0l-2-1.6c-0.2-0.1-0.2-0.4-0.1-0.5L15.4,5
						c0.1-0.2,0.3-0.3,0.5-0.2l2.6,1C18.7,5.6,19,5.3,19.3,5l-1-2.6c-0.1-0.2,0-0.4,0.2-0.5l1.4-0.8C20,1,20.3,1.1,20.4,1.2l1.7,2.2
						c0.4-0.1,0.8-0.2,1.2-0.3l0.4-2.8c0-0.2,0.2-0.3,0.4-0.3h1.6c0.2,0,0.4,0.1,0.4,0.3l0.4,2.8c0.4,0.1,0.8,0.2,1.2,0.3l1.7-2.2
						c0.1-0.2,0.4-0.2,0.5-0.1l1.4,0.8c0.2,0.1,0.3,0.3,0.2,0.5l-1,2.6c0.3,0.3,0.6,0.5,0.8,0.8l2.6-1c0.2-0.1,0.4,0,0.5,0.2
						l0.8,1.4c0.1,0.2,0.1,0.4-0.1,0.5l-2.2,1.7C33,9,33.1,9.4,33.2,9.8l2.8,0.4c0.2,0,0.3,0.2,0.3,0.4v1.6c0,0.2-0.1,0.4-0.3,0.4
						L33.2,13c-0.1,0.4-0.2,0.8-0.3,1.2l2.2,1.7c0.2,0.1,0.2,0.4,0.1,0.5l-0.8,1.4c-0.1,0.2-0.3,0.2-0.5,0.2l-2.6-1
						c-0.3,0.3-0.6,0.6-0.8,0.8l1,2.6c0.1,0.2,0,0.4-0.2,0.5l-1.4,0.8c-0.2,0.1-0.4,0.1-0.5-0.1l-1.7-2.2c-0.4,0.1-0.8,0.2-1.2,0.3
						l-0.4,2.8C26,22.7,25.9,22.8,25.7,22.8z M24.4,22h0.9l0.4-2.7c0-0.2,0.2-0.3,0.3-0.3c0.6-0.1,1.1-0.2,1.6-0.4
						c0.2-0.1,0.4,0,0.5,0.1l1.7,2.1l0.8-0.4l-1-2.5c-0.1-0.2,0-0.4,0.1-0.5c0.4-0.3,0.8-0.7,1.1-1.1c0.1-0.1,0.3-0.2,0.5-0.1l2.5,1
						l0.4-0.8l-2.1-1.7c-0.1-0.1-0.2-0.3-0.1-0.5c0.2-0.5,0.3-1,0.4-1.6c0-0.2,0.2-0.3,0.3-0.3l2.7-0.4V11l-2.7-0.4
						c-0.2,0-0.3-0.2-0.3-0.3c-0.1-0.5-0.2-1.1-0.4-1.6c-0.1-0.2,0-0.4,0.1-0.5l2.1-1.7l-0.4-0.8l-2.5,1c-0.2,0.1-0.4,0-0.5-0.1
						c-0.3-0.4-0.7-0.8-1.1-1.2c-0.1-0.1-0.2-0.3-0.1-0.5l1-2.5L29.8,2l-1.7,2.1c-0.1,0.1-0.3,0.2-0.5,0.1c-0.5-0.2-1.1-0.3-1.6-0.4
						c-0.2,0-0.3-0.2-0.3-0.3l-0.4-2.7h-0.9L24,3.5c0,0.2-0.2,0.3-0.3,0.3c-0.5,0.1-1,0.2-1.6,0.4c-0.2,0.1-0.4,0-0.5-0.1L20,2
						l-0.8,0.4l1,2.5c0.1,0.2,0,0.4-0.1,0.5c-0.4,0.4-0.8,0.7-1.1,1.2c-0.1,0.1-0.3,0.2-0.5,0.1l-2.5-1l-0.4,0.8l2.1,1.7
						c0.1,0.1,0.2,0.3,0.1,0.5c-0.2,0.5-0.3,1.1-0.4,1.6c0,0.2-0.2,0.3-0.3,0.3L14.3,11v0.9l2.7,0.4c0.2,0,0.3,0.2,0.3,0.3
						c0.1,0.5,0.2,1.1,0.4,1.6c0.1,0.2,0,0.4-0.1,0.5l-2.1,1.7l0.4,0.8l2.5-1c0.2-0.1,0.4,0,0.5,0.1c0.4,0.4,0.7,0.8,1.1,1.1
						c0.1,0.1,0.2,0.3,0.1,0.5l-1,2.5l0.8,0.4l1.7-2.1c0.1-0.1,0.3-0.2,0.5-0.1c0.5,0.2,1,0.3,1.6,0.4c0.2,0,0.3,0.2,0.3,0.3
						L24.4,22z"/>
				</g>
				<g>
					<path fill="#FFFFFF" d="M28.1,30.3h-6.4c-0.2,0-0.4-0.2-0.4-0.4v-3.6c0-0.2,0.2-0.4,0.4-0.4h6.4c0.2,0,0.4,0.2,0.4,0.4v3.6
						C28.5,30.1,28.3,30.3,28.1,30.3z M22.1,29.4h5.5v-2.8h-5.5V29.4z"/>
				</g>
				<g>
					<path fill="#FFFFFF" d="M41.3,29.4h-3.2c-0.2,0-0.4-0.2-0.4-0.4v-1.8c0-0.2,0.2-0.4,0.4-0.4h3.2c0.2,0,0.4,0.2,0.4,0.4V29
						C41.7,29.2,41.5,29.4,41.3,29.4z M38.5,28.6h2.4v-1h-2.4V28.6z"/>
				</g>
				<g>
					<path fill="#FFFFFF" d="M38.1,28.5h-10c-0.2,0-0.4-0.2-0.4-0.4c0-0.2,0.2-0.4,0.4-0.4h10c0.2,0,0.4,0.2,0.4,0.4
						C38.5,28.3,38.3,28.5,38.1,28.5z"/>
				</g>
				<g>
					<path fill="#FFFFFF" d="M11.7,29.4H8.4C8.2,29.4,8,29.2,8,29v-1.8c0-0.2,0.2-0.4,0.4-0.4h3.2c0.2,0,0.4,0.2,0.4,0.4V29
						C12.1,29.2,11.9,29.4,11.7,29.4z M8.8,28.6h2.4v-1H8.8V28.6z"/>
				</g>
				<g>
					<path fill="#FFFFFF" d="M21.7,28.5h-10c-0.2,0-0.4-0.2-0.4-0.4c0-0.2,0.2-0.4,0.4-0.4h10c0.2,0,0.4,0.2,0.4,0.4
						C22.1,28.3,21.9,28.5,21.7,28.5z"/>
				</g>
			</g>
		</g>
	</g>
</g>
</svg>
