<?xml version="1.0" encoding="utf-8"?>
<!-- Generator: Adobe Illustrator 24.0.0, SVG Export Plug-In . SVG Version: 6.00 Build 0)  -->
<svg version="1.1" id="Layer_1" xmlns="http://www.w3.org/2000/svg" xmlns:xlink="http://www.w3.org/1999/xlink" x="0px" y="0px"
	 viewBox="0 0 50 50" enable-background="new 0 0 50 50" xml:space="preserve">
<g>
	<g>
		<g>
			<g>
				<g>
					<g>
						<path fill="#FFFFFF" d="M45.5,29.7h-41c-0.2,0-0.4-0.2-0.4-0.4V0.4C4.1,0.2,4.3,0,4.5,0h41c0.2,0,0.4,0.2,0.4,0.4v28.9
							C45.9,29.5,45.7,29.7,45.5,29.7z M4.9,28.9h40.2V0.8H4.9V28.9z"/>
					</g>
				</g>
				<g>
					<g>
						<path fill="#FFFFFF" d="M42.7,26.9H7.3c-0.2,0-0.4-0.2-0.4-0.4V3.2c0-0.2,0.2-0.4,0.4-0.4h35.4c0.2,0,0.4,0.2,0.4,0.4v23.3
							C43.1,26.7,42.9,26.9,42.7,26.9z M7.7,26.1h34.6V3.6H7.7V26.1z"/>
					</g>
				</g>
				<g>
					<g>
						<path fill="#FFFFFF" d="M31.3,35.5C31.3,35.5,31.3,35.5,31.3,35.5H18.7c-0.1,0-0.3-0.1-0.3-0.2c-0.1-0.1-0.1-0.2-0.1-0.4
							l1.9-5.8c0.1-0.2,0.2-0.3,0.4-0.3h8.9c0.2,0,0.3,0.1,0.4,0.3l1.8,5.7c0,0.1,0.1,0.1,0.1,0.2C31.7,35.3,31.5,35.5,31.3,35.5z
							 M19.3,34.7h11.5l-1.6-5h-8.3L19.3,34.7z"/>
					</g>
				</g>
				<g>
					<g>
						<path fill="#FFFFFF" d="M25,33.5c-0.7,0-1.3-0.6-1.3-1.3c0-0.7,0.6-1.3,1.3-1.3c0.7,0,1.3,0.6,1.3,1.3
							C26.3,32.9,25.7,33.5,25,33.5z M25,31.7c-0.3,0-0.5,0.2-0.5,0.5c0,0.3,0.2,0.5,0.5,0.5c0.3,0,0.5-0.2,0.5-0.5
							C25.5,31.9,25.3,31.7,25,31.7z"/>
					</g>
				</g>
				<g>
					<g>
						<path fill="#FFFFFF" d="M43.2,50C43.2,50,43.1,50,43.2,50H6.9c-0.1,0-0.2-0.1-0.3-0.1c-0.1-0.1-0.1-0.2-0.1-0.3L8.3,38
							c0-0.2,0.2-0.3,0.4-0.3h32.6c0.2,0,0.4,0.1,0.4,0.3l1.8,11.4c0,0,0,0.1,0,0.2C43.6,49.8,43.4,50,43.2,50z M7.3,49.2h35.3
							l-1.7-10.7H9.1L7.3,49.2z"/>
					</g>
				</g>
				<g>
					<g>
						<path fill="#FFFFFF" d="M38.7,40.9H11.3c-0.2,0-0.4-0.2-0.4-0.4c0-0.2,0.2-0.4,0.4-0.4h27.3c0.2,0,0.4,0.2,0.4,0.4
							C39.1,40.7,38.9,40.9,38.7,40.9z"/>
					</g>
				</g>
				<g>
					<g>
						<path fill="#FFFFFF" d="M38.7,44.3H11.3c-0.2,0-0.4-0.2-0.4-0.4s0.2-0.4,0.4-0.4h27.3c0.2,0,0.4,0.2,0.4,0.4
							S38.9,44.3,38.7,44.3z"/>
					</g>
				</g>
				<g>
					<g>
						<path fill="#FFFFFF" d="M38,47.5h-6.9c-0.2,0-0.4-0.2-0.4-0.4s0.2-0.4,0.4-0.4H38c0.2,0,0.4,0.2,0.4,0.4S38.2,47.5,38,47.5z
							 M18.2,47.5h-6.8c-0.2,0-0.4-0.2-0.4-0.4s0.2-0.4,0.4-0.4h6.8c0.2,0,0.4,0.2,0.4,0.4S18.4,47.5,18.2,47.5z"/>
					</g>
				</g>
				<g>
					<g>
						<path fill="#FFFFFF" d="M28.6,47.5h-9c-0.2,0-0.4-0.2-0.4-0.4s0.2-0.4,0.4-0.4h9c0.2,0,0.4,0.2,0.4,0.4S28.9,47.5,28.6,47.5z"
							/>
					</g>
				</g>
			</g>
		</g>
	</g>
	<g>
		<g>
			<path fill="#FFFFFF" d="M22.5,18c-0.1,0-0.2,0-0.3-0.1L19.4,15c-0.1-0.1-0.1-0.4,0-0.5l2.9-2.9c0.1-0.1,0.4-0.1,0.5,0
				s0.1,0.4,0,0.5l-2.6,2.6l2.6,2.6c0.1,0.1,0.1,0.4,0,0.5C22.7,18,22.6,18,22.5,18z"/>
		</g>
		<g>
			<path fill="#FFFFFF" d="M27.5,18.1c-0.1,0-0.2,0-0.3-0.1c-0.1-0.1-0.1-0.4,0-0.5l2.6-2.6l-2.6-2.6c-0.1-0.1-0.1-0.4,0-0.5
				s0.4-0.1,0.5,0l2.9,2.9c0.1,0.1,0.1,0.4,0,0.5L27.8,18C27.7,18.1,27.6,18.1,27.5,18.1z"/>
		</g>
		<g>
			<path fill="#FFFFFF" d="M23.7,19.7C23.6,19.7,23.6,19.7,23.7,19.7c-0.3-0.1-0.4-0.3-0.4-0.5l2.3-8.9c0.1-0.2,0.3-0.3,0.5-0.3
				c0.2,0.1,0.3,0.3,0.3,0.5L24,19.4C24,19.6,23.8,19.7,23.7,19.7z"/>
		</g>
	</g>
</g>
</svg>
