<?xml version="1.0" encoding="utf-8"?>
<!-- Generator: Adobe Illustrator 24.0.0, SVG Export Plug-In . SVG Version: 6.00 Build 0)  -->
<svg version="1.1" id="Layer_1" xmlns="http://www.w3.org/2000/svg" xmlns:xlink="http://www.w3.org/1999/xlink" x="0px" y="0px"
	 viewBox="0 0 50 50" enable-background="new 0 0 50 50" xml:space="preserve">
<g>
	<g>
		<g>
			<path fill="#FFFFFF" d="M45.7,44.4h-5.9c-0.2,0-0.4-0.2-0.4-0.4c0-0.2,0.2-0.4,0.4-0.4h5.5V14.9H10.6v5.2c0,0.2-0.2,0.4-0.4,0.4
				c-0.2,0-0.4-0.2-0.4-0.4v-5.6c0-0.2,0.2-0.4,0.4-0.4h35.5c0.2,0,0.4,0.2,0.4,0.4V44C46.1,44.2,45.9,44.4,45.7,44.4z"/>
		</g>
		<g>
			<path fill="#FFFFFF" d="M39.8,50H4.3c-0.2,0-0.4-0.2-0.4-0.4V20.1c0-0.2,0.2-0.4,0.4-0.4h35.5c0.2,0,0.4,0.2,0.4,0.4v29.5
				C40.2,49.8,40,50,39.8,50z M4.7,49.2h34.7V20.5H4.7V49.2z"/>
		</g>
		<g>
			<path fill="#FFFFFF" d="M39.8,39.8c-0.1,0-0.2,0-0.2-0.1l-8.4-6.2l-6.5,5.3c-0.2,0.1-0.4,0.1-0.6-0.1c-0.1-0.2-0.1-0.4,0.1-0.6
				l6.8-5.5c0.1-0.1,0.4-0.1,0.5,0l8.6,6.4c0.2,0.1,0.2,0.4,0.1,0.6C40,39.7,39.9,39.8,39.8,39.8z"/>
		</g>
		<g>
			<path fill="#FFFFFF" d="M4.3,44.5c-0.1,0-0.2-0.1-0.3-0.1c-0.1-0.2-0.1-0.4,0.1-0.6l13.3-11c0.1-0.1,0.4-0.1,0.5,0l11.5,9
				c0.2,0.1,0.2,0.4,0.1,0.6c-0.1,0.2-0.4,0.2-0.6,0.1l-11.2-8.8l-13,10.8C4.5,44.5,4.4,44.5,4.3,44.5z"/>
		</g>
		<g>
			<path fill="#FFFFFF" d="M25.9,31.4c-1.7,0-3.1-1.4-3.1-3.1c0-1.7,1.4-3.1,3.1-3.1c1.7,0,3.1,1.4,3.1,3.1
				C29,30,27.6,31.4,25.9,31.4z M25.9,26.1c-1.2,0-2.3,1-2.3,2.3c0,1.2,1,2.3,2.3,2.3c1.2,0,2.3-1,2.3-2.3
				C28.2,27.1,27.1,26.1,25.9,26.1z"/>
		</g>
		<g>
			<path fill="#FFFFFF" d="M40.6,14.9c-0.1,0-0.2,0-0.3-0.1L29,3.5c-0.2-0.2-0.2-0.4,0-0.6c0.2-0.2,0.4-0.2,0.6,0l11.3,11.3
				c0.2,0.2,0.2,0.4,0,0.6C40.8,14.9,40.7,14.9,40.6,14.9z M15.7,14.9c-0.1,0-0.2,0-0.3-0.1c-0.2-0.2-0.2-0.4,0-0.6L26.7,2.9
				c0.2-0.2,0.4-0.2,0.6,0c0.2,0.2,0.2,0.4,0,0.6L15.9,14.8C15.9,14.9,15.8,14.9,15.7,14.9z"/>
		</g>
		<g>
			<path fill="#FFFFFF" d="M28.1,4.1c-1.1,0-2-0.9-2-2c0-1.1,0.9-2,2-2c1.1,0,2,0.9,2,2C30.2,3.2,29.2,4.1,28.1,4.1z M28.1,0.8
				c-0.7,0-1.2,0.5-1.2,1.2c0,0.7,0.5,1.2,1.2,1.2c0.7,0,1.2-0.5,1.2-1.2C29.3,1.4,28.8,0.8,28.1,0.8z"/>
		</g>
	</g>
</g>
</svg>
