<?xml version="1.0" encoding="utf-8"?>
<!-- Generator: Adobe Illustrator 24.0.0, SVG Export Plug-In . SVG Version: 6.00 Build 0)  -->
<svg version="1.1" id="Layer_1" xmlns="http://www.w3.org/2000/svg" xmlns:xlink="http://www.w3.org/1999/xlink" x="0px" y="0px"
	 viewBox="0 0 50 50" enable-background="new 0 0 50 50" xml:space="preserve">
<g>
	<g>
		<g>
			<path fill="#FFFFFF" d="M27.4,18.1h-4.7c-0.2,0-0.4-0.2-0.4-0.4V2.8C22.2,1.2,23.5,0,25,0c1.5,0,2.8,1.2,2.8,2.8v14.9
				C27.8,17.9,27.6,18.1,27.4,18.1z M23.1,17.2H27V2.8c0-1.1-0.9-1.9-1.9-1.9c-1.1,0-1.9,0.9-1.9,1.9V17.2z"/>
		</g>
		<g>
			<path fill="#FFFFFF" d="M24.9,45.4C24.9,45.4,24.9,45.4,24.9,45.4c-0.1,0-0.3-0.1-0.3-0.2l-6.9-10.5c-0.1-0.1-0.1-0.2,0-0.4
				l4.7-13.7c0.1-0.2,0.2-0.3,0.4-0.3h4.6c0.2,0,0.3,0.1,0.4,0.3l4.7,13.7c0,0.1,0,0.3,0,0.4l-7.1,10.5
				C25.2,45.3,25.1,45.4,24.9,45.4z M18.5,34.4l6.4,9.9l6.6-9.9L27,21.1h-4L18.5,34.4z"/>
		</g>
		<g>
			<path fill="#FFFFFF" d="M29.2,21.1h-8.3c-0.2,0-0.4-0.2-0.4-0.4v-3.1c0-0.2,0.2-0.4,0.4-0.4h8.3c0.2,0,0.4,0.2,0.4,0.4v3.1
				C29.6,20.9,29.4,21.1,29.2,21.1z M21.3,20.3h7.5v-2.3h-7.5V20.3z"/>
		</g>
		<g>
			<path fill="#FFFFFF" d="M25,33.9c-1.4,0-2.6-1.2-2.6-2.6c0-1.4,1.2-2.6,2.6-2.6c1.4,0,2.6,1.2,2.6,2.6
				C27.6,32.7,26.5,33.9,25,33.9z M25,29.5c-1,0-1.8,0.8-1.8,1.8c0,1,0.8,1.8,1.8,1.8c1,0,1.8-0.8,1.8-1.8
				C26.8,30.3,26,29.5,25,29.5z"/>
		</g>
		<g>
			<path fill="#FFFFFF" d="M24.9,45.4C24.9,45.4,24.9,45.4,24.9,45.4c-0.2,0-0.4-0.2-0.4-0.4l0.1-11.5c0-0.2,0.2-0.4,0.4-0.4
				c0,0,0,0,0,0c0.2,0,0.4,0.2,0.4,0.4L25.3,45C25.3,45.2,25.1,45.4,24.9,45.4z"/>
		</g>
		<g>
			<path fill="#FFFFFF" d="M28.6,50h-7.3c-0.2,0-0.4-0.2-0.4-0.4v-4.1c0-0.2,0.2-0.4,0.4-0.4h7.3c0.2,0,0.4,0.2,0.4,0.4v4.1
				C29.1,49.8,28.9,50,28.6,50z M21.8,49.2h6.4v-3.3h-6.4V49.2z"/>
		</g>
		<g>
			<path fill="#FFFFFF" d="M43.8,49h-3.7c-0.2,0-0.4-0.2-0.4-0.4v-2.1c0-0.2,0.2-0.4,0.4-0.4h3.7c0.2,0,0.4,0.2,0.4,0.4v2.1
				C44.2,48.8,44,49,43.8,49z M40.5,48.2h2.9v-1.3h-2.9V48.2z"/>
		</g>
		<g>
			<path fill="#FFFFFF" d="M40.1,48H28.6c-0.2,0-0.4-0.2-0.4-0.4c0-0.2,0.2-0.4,0.4-0.4h11.5c0.2,0,0.4,0.2,0.4,0.4
				C40.5,47.8,40.3,48,40.1,48z"/>
		</g>
		<g>
			<path fill="#FFFFFF" d="M9.9,49H6.2c-0.2,0-0.4-0.2-0.4-0.4v-2.1c0-0.2,0.2-0.4,0.4-0.4h3.7c0.2,0,0.4,0.2,0.4,0.4v2.1
				C10.3,48.8,10.1,49,9.9,49z M6.6,48.2h2.9v-1.3H6.6V48.2z"/>
		</g>
		<g>
			<path fill="#FFFFFF" d="M21.3,48H9.9c-0.2,0-0.4-0.2-0.4-0.4c0-0.2,0.2-0.4,0.4-0.4h11.5c0.2,0,0.4,0.2,0.4,0.4
				C21.8,47.8,21.6,48,21.3,48z"/>
		</g>
	</g>
</g>
</svg>
