<?xml version="1.0" encoding="utf-8"?>
<!-- Generator: Adobe Illustrator 24.0.0, SVG Export Plug-In . SVG Version: 6.00 Build 0)  -->
<svg version="1.1" id="Layer_1" xmlns="http://www.w3.org/2000/svg" xmlns:xlink="http://www.w3.org/1999/xlink" x="0px" y="0px"
	 viewBox="0 0 50 50" enable-background="new 0 0 50 50" xml:space="preserve">
<g>
	<g>
		<path fill="#FFFFFF" d="M36.1,12c-0.1,0-0.1,0-0.2,0L25,7.2l-10.9,4.7c-0.3,0.1-0.6,0-0.7-0.3c-0.1-0.3,0-0.6,0.3-0.7l11.1-4.8
			c0.1-0.1,0.3-0.1,0.4,0L36.3,11c0.3,0.1,0.4,0.4,0.3,0.7C36.5,11.9,36.3,12,36.1,12z"/>
	</g>
	<g>
		<path fill="#FFFFFF" d="M49.5,43.9H0.5c-0.3,0-0.5-0.2-0.5-0.5V17.3c0-0.2,0.1-0.4,0.3-0.5l6.2-2.7c0.3-0.1,0.6,0,0.7,0.3
			c0.1,0.3,0,0.6-0.3,0.7l-5.8,2.5v25.2h47.9V17.6l-5-2.2c-0.3-0.1-0.4-0.4-0.3-0.7c0.1-0.3,0.4-0.4,0.7-0.3l5.3,2.3
			c0.2,0.1,0.3,0.3,0.3,0.5v26.1C50,43.6,49.8,43.9,49.5,43.9z"/>
	</g>
	<g>
		<path fill="#FFFFFF" d="M49.5,43.9H0.5c-0.2,0-0.4-0.1-0.5-0.4c-0.1-0.2,0-0.5,0.2-0.6l24.1-18.4c0.2-0.1,0.4-0.1,0.6,0l24.9,18.4
			c0.2,0.1,0.3,0.4,0.2,0.6C49.9,43.7,49.7,43.9,49.5,43.9z M2.1,42.8h45.8L24.6,25.7L2.1,42.8z"/>
	</g>
	<g>
		<path fill="#FFFFFF" d="M19.9,29.1c-0.1,0-0.2,0-0.3-0.1L0.3,17.7C0,17.6-0.1,17.2,0.1,17c0.1-0.3,0.5-0.3,0.7-0.2l19.4,11.3
			c0.3,0.1,0.3,0.5,0.2,0.7C20.3,29,20.1,29.1,19.9,29.1z"/>
	</g>
	<g>
		<path fill="#FFFFFF" d="M29.4,29.1c-0.2,0-0.4-0.1-0.5-0.3c-0.1-0.3-0.1-0.6,0.2-0.7l20.1-11.3c0.3-0.1,0.6-0.1,0.7,0.2
			s0.1,0.6-0.2,0.7L29.7,29C29.6,29.1,29.5,29.1,29.4,29.1z"/>
	</g>
	<g>
		<path fill="#FFFFFF" d="M6.7,21.4c-0.3,0-0.5-0.2-0.5-0.5v-9.4c0-0.3,0.2-0.5,0.5-0.5h37.5c0.3,0,0.5,0.2,0.5,0.5v8.8
			c0,0.3-0.2,0.5-0.5,0.5s-0.5-0.2-0.5-0.5V12H7.2v8.9C7.2,21.1,7,21.4,6.7,21.4z"/>
	</g>
</g>
</svg>
