<?xml version="1.0" encoding="utf-8"?>
<!-- Generator: Adobe Illustrator 24.0.0, SVG Export Plug-In . SVG Version: 6.00 Build 0)  -->
<svg version="1.1" id="Layer_1" xmlns="http://www.w3.org/2000/svg" xmlns:xlink="http://www.w3.org/1999/xlink" x="0px" y="0px"
	 viewBox="0 0 50 50" enable-background="new 0 0 50 50" xml:space="preserve">
<g>
	<path fill="#FFFFFF" d="M3.5,40.8c-0.7,0-1.3-0.3-1.8-0.8C1.2,39.5,1,38.9,1,38.2c0-0.7,0.3-1.3,0.7-1.8c0.7-0.7,1.7-0.9,2.6-0.6
		c0.1,0,0.3,0.1,0.4,0.2c0,0,0,0,0.1,0C4.9,36,5,36.1,5.2,36.2c0.1,0,0.1,0.1,0.2,0.2c0.5,0.5,0.7,1.1,0.7,1.8
		c0,0.7-0.3,1.3-0.7,1.8C4.8,40.5,4.2,40.8,3.5,40.8z M3.5,36.5c-0.5,0-0.9,0.2-1.2,0.5c-0.3,0.3-0.5,0.7-0.5,1.2s0.2,0.9,0.5,1.2
		C3,40,4.1,40,4.7,39.4C5,39,5.2,38.6,5.2,38.2c0-0.4-0.2-0.9-0.5-1.2c0,0,0,0,0,0c0,0,0,0,0,0c-0.1-0.1-0.2-0.2-0.3-0.2
		c0,0,0,0,0,0c-0.1,0-0.2-0.1-0.3-0.1C3.9,36.6,3.7,36.5,3.5,36.5z"/>
	<path fill="#FFFFFF" d="M46.5,13.8C46.4,13.8,46.4,13.8,46.5,13.8c-0.2,0-0.3,0-0.4,0c0,0,0,0,0,0c-0.1,0-0.2,0-0.3-0.1
		c-0.2-0.1-0.4-0.2-0.7-0.3c-0.1-0.1-0.2-0.1-0.3-0.2c-0.1-0.1-0.2-0.2-0.2-0.2c-0.2-0.2-0.3-0.4-0.4-0.6c-0.1-0.4-0.2-0.7-0.2-1
		c0-0.4,0.1-0.9,0.3-1.2c0.1-0.2,0.3-0.4,0.4-0.6c1-1,2.7-1,3.6,0c0,0,0,0,0,0c0.5,0.5,0.7,1.1,0.7,1.8c0,0.7-0.3,1.3-0.7,1.8
		C47.8,13.6,47.1,13.8,46.5,13.8z M46.5,9.6c-0.4,0-0.9,0.2-1.2,0.5c-0.1,0.1-0.2,0.2-0.3,0.4c-0.1,0.2-0.2,0.5-0.2,0.8
		c0,0.2,0,0.5,0.1,0.7c0.1,0.1,0.1,0.3,0.3,0.4c0,0,0.1,0.1,0.2,0.2c0.1,0,0.1,0.1,0.2,0.1c0.2,0.1,0.3,0.2,0.4,0.2
		c0.1,0,0.2,0,0.2,0.1c0.1,0,0.2,0,0.2,0c0.5,0,0.9-0.2,1.2-0.5c0.3-0.3,0.5-0.8,0.5-1.2c0-0.4-0.2-0.9-0.5-1.2
		C47.3,9.8,46.9,9.6,46.5,9.6z"/>
	<path fill="#FFFFFF" d="M46.5,40.8c-0.7,0-1.3-0.3-1.8-0.8c-0.2-0.2-0.4-0.5-0.5-0.8L44,39c0-0.1-0.1-0.2-0.1-0.3
		c0-0.2-0.1-0.3-0.1-0.5c0-0.7,0.3-1.3,0.7-1.8c1-1,2.7-1,3.6,0c0,0,0,0,0,0c0.5,0.5,0.7,1.1,0.7,1.8c0,0.7-0.3,1.3-0.7,1.8
		C47.8,40.5,47.1,40.8,46.5,40.8z M46.5,36.5c-0.4,0-0.9,0.2-1.2,0.5c-0.3,0.3-0.5,0.7-0.5,1.2c0,0.1,0,0.2,0,0.3c0,0,0,0.1,0,0.1
		l0.1,0.2c0.1,0.2,0.2,0.4,0.3,0.5c0.6,0.6,1.7,0.6,2.3,0c0.3-0.3,0.5-0.8,0.5-1.2c0-0.4-0.2-0.9-0.5-1.2
		C47.3,36.7,46.9,36.5,46.5,36.5z"/>
	<path fill="#FFFFFF" d="M27.9,46.2c-0.2,0-0.3-0.1-0.4-0.2c0-0.1-0.1-0.1-0.2-0.2c-0.1-0.1-0.1-0.2-0.2-0.2c0,0-0.1-0.1-0.1-0.1
		c0,0-0.1-0.1-0.1-0.1c-0.1-0.1-0.2-0.1-0.2-0.2c-0.1-0.1-0.2-0.1-0.3-0.2c-0.1,0-0.1-0.1-0.2-0.1c-0.2-0.1-0.4-0.2-0.7-0.2
		c-0.2,0-0.4-0.2-0.4-0.4v-23c0-0.2,0.1-0.3,0.3-0.4l18.1-8c0.2-0.1,0.4,0,0.5,0.2c0.1,0.2,0.2,0.3,0.4,0.4c0,0,0,0,0,0c0,0,0,0,0,0
		c0.1,0.1,0.2,0.2,0.3,0.2l0.2,0.1c0.2,0.2,0.5,0.3,0.8,0.3c0.1,0,0.2,0,0.2,0.1c0.2,0,0.4,0.2,0.4,0.4v20.3c0,0.2-0.2,0.4-0.4,0.4
		c0,0,0,0-0.1,0c0,0-0.1,0-0.1,0c-0.1,0-0.1,0-0.2,0.1c-0.3,0.1-0.5,0.2-0.7,0.3c-0.1,0-0.1,0.1-0.2,0.1c-0.1,0.1-0.2,0.1-0.2,0.2
		c-0.6,0.6-0.9,1.3-0.9,2c0,0.1,0,0.2,0,0.3c0,0.2,0,0.3,0.1,0.4c0.1,0.2,0,0.5-0.2,0.5L28,46.1C28,46.2,27.9,46.2,27.9,46.2z
		 M27.8,44.9c0.1,0.1,0.2,0.2,0.2,0.3l14.7-6.5c0,0,0-0.1,0-0.1c0-0.1,0-0.2,0-0.4c0-1,0.4-2,1.1-2.7c0.1-0.1,0.2-0.2,0.3-0.3
		c0.1-0.1,0.2-0.1,0.3-0.2c0.3-0.2,0.6-0.3,0.9-0.4c0,0,0.1,0,0.2-0.1V14.9c-0.4-0.1-0.7-0.3-1-0.5l-0.2-0.1
		c-0.1-0.1-0.3-0.2-0.4-0.3l0,0c0,0,0,0,0,0l0,0c-0.1-0.1-0.1-0.2-0.2-0.2l-17.5,7.7v22.4c0.2,0.1,0.3,0.1,0.5,0.2
		c0.1,0,0.2,0.1,0.3,0.1c0.1,0.1,0.2,0.1,0.4,0.2c0.1,0,0.2,0.1,0.3,0.2c0,0,0.1,0.1,0.2,0.2C27.7,44.8,27.8,44.8,27.8,44.9z"/>
	<path fill="#FFFFFF" d="M25,20.5c-0.1,0-0.1,0-0.2,0L6.5,12.4c-0.2-0.1-0.3-0.3-0.2-0.6c0.1-0.3,0.2-0.6,0.2-0.9c0-0.2,0-0.3,0-0.5
		c0-0.2,0.1-0.4,0.3-0.5l16-6c0.2-0.1,0.5,0,0.6,0.2c0,0.1,0.1,0.1,0.1,0.2c0,0,0,0,0,0.1c0.1,0.1,0.1,0.1,0.2,0.2c0,0,0,0,0,0
		c0,0,0,0,0,0C23.7,4.7,23.9,4.9,24,5c0.1,0.1,0.2,0.1,0.3,0.2c0.1,0,0.1,0.1,0.2,0.1c0.1,0,0.2,0.1,0.2,0.1l0.1,0
		c0.1,0,0.1,0,0.2,0c0,0,0,0,0.1,0c0.1,0,0.2,0,0.2,0c0.2,0,0.4,0,0.6,0c0.4,0,0.8-0.1,1.1-0.3c0.1,0,0.1-0.1,0.2-0.1
		c0.2-0.1,0.3-0.2,0.4-0.4c0,0,0,0,0.1,0c0,0,0,0,0,0c0.1-0.1,0.3-0.3,0.4-0.5c0.1-0.2,0.3-0.3,0.6-0.2l14.8,5.9
		c0.2,0.1,0.3,0.3,0.3,0.6c-0.1,0.3-0.1,0.6-0.1,0.9c0,0.2,0,0.4,0.1,0.7c0,0.2-0.1,0.4-0.3,0.5l-18.2,8
		C25.1,20.5,25.1,20.5,25,20.5z M7.2,11.7L25,19.6l17.7-7.8c0-0.2,0-0.3,0-0.5c0-0.2,0-0.5,0.1-0.7L28.6,4.9
		c-0.1,0.1-0.2,0.2-0.2,0.3c0,0,0,0,0,0c0,0-0.1,0.1-0.1,0.1c-0.1,0.1-0.3,0.3-0.5,0.4c-0.1,0.1-0.2,0.1-0.3,0.2
		C27,6.1,26.5,6.3,26,6.3c-0.2,0-0.5,0-0.7,0c-0.1,0-0.2,0-0.3,0c0,0,0,0-0.1,0c-0.1,0-0.2,0-0.2-0.1l-0.1,0c-0.1,0-0.2-0.1-0.2-0.1
		C24.1,6,24,6,23.9,5.9c-0.1-0.1-0.2-0.1-0.3-0.2c-0.2-0.1-0.4-0.3-0.5-0.4c0,0,0,0,0,0c0,0-0.1-0.1-0.1-0.1
		c-0.1-0.1-0.2-0.2-0.2-0.3c0,0,0,0,0,0l0,0c0,0,0,0,0,0L7.3,10.6c0,0.1,0,0.2,0,0.3C7.3,11.2,7.3,11.5,7.2,11.7z M27.6,4.7
		C27.6,4.7,27.6,4.7,27.6,4.7C27.6,4.7,27.6,4.7,27.6,4.7z"/>
	<path fill="#FFFFFF" d="M25.6,5.1c-0.1,0-0.2,0-0.4,0c0,0-0.1,0-0.1,0c-0.1,0-0.2,0-0.3-0.1c0,0-0.1,0-0.1,0c0,0-0.1,0-0.2-0.1
		c-0.1,0-0.2-0.1-0.2-0.1c0,0-0.1,0-0.1-0.1c0,0,0,0-0.1,0c-0.1,0-0.1-0.1-0.2-0.1c0,0-0.1-0.1-0.2-0.2c-0.1-0.1-0.2-0.2-0.2-0.3
		C23.5,4,23.5,4,23.5,4c0,0,0-0.1-0.1-0.1c0,0,0-0.1-0.1-0.1c0,0-0.1-0.1-0.1-0.2c-0.1-0.3-0.2-0.6-0.2-1c0-0.7,0.3-1.4,0.8-1.8
		C24.3,0.3,25,0,25.6,0c0.7,0,1.3,0.3,1.8,0.8c0.5,0.5,0.8,1.1,0.8,1.8c0,0.3-0.1,0.7-0.2,1c-0.1,0.2-0.2,0.4-0.3,0.5
		c-0.1,0.1-0.1,0.2-0.2,0.3c0,0,0,0,0,0.1c-0.1,0.1-0.1,0.1-0.2,0.2c-0.1,0.1-0.3,0.2-0.4,0.2l0,0c0,0,0,0-0.1,0c0,0-0.1,0-0.2,0.1
		C26.5,5,26.3,5,26.1,5.1c-0.1,0-0.2,0-0.3,0C25.8,5.1,25.7,5.1,25.6,5.1z M25.3,4.2C25.4,4.2,25.4,4.2,25.3,4.2c0.2,0,0.3,0,0.4,0
		c0,0,0.1,0,0.1,0c0,0,0,0,0.1,0c0.2,0,0.3-0.1,0.4-0.1c0,0,0.1,0,0.1,0c0,0,0,0,0,0c0.1,0,0.1-0.1,0.2-0.1c0,0,0.1-0.1,0.1-0.1
		c0,0,0,0,0.1-0.1c0,0,0.1-0.1,0.2-0.2c0.1-0.1,0.1-0.2,0.2-0.3c0.1-0.2,0.1-0.4,0.1-0.6c0-0.4-0.2-0.9-0.5-1.2
		c-0.6-0.6-1.7-0.6-2.3,0C24.2,1.7,24,2.1,24,2.6c0,0.2,0,0.4,0.1,0.6c0,0.1,0.1,0.1,0.1,0.2l-0.4,0.3l0.4-0.2l0.1,0.1
		c0,0.1,0.1,0.1,0.2,0.2c0,0,0.1,0.1,0.2,0.1c0,0,0.1,0.1,0.1,0.1c0,0,0.1,0,0.1,0.1C24.9,4.1,25,4.1,25,4.1c0,0,0.1,0,0.1,0
		c0,0,0.1,0,0.1,0C25.3,4.2,25.3,4.2,25.3,4.2z"/>
	<path fill="#FFFFFF" d="M24.7,50c-0.6-0.1-1.1-0.3-1.5-0.7c-0.5-0.5-0.8-1.1-0.8-1.8c0-0.2,0-0.5,0.1-0.7c0,0,0-0.1,0-0.1
		c0.1-0.3,0.2-0.5,0.4-0.7c0.1-0.1,0.2-0.2,0.3-0.3c0.1-0.1,0.2-0.1,0.3-0.2c0,0,0,0,0.1,0c0.1-0.1,0.2-0.1,0.3-0.2c0,0,0,0,0.1,0
		c0.1,0,0.1-0.1,0.2-0.1l0.1,0c0,0,0,0,0.1,0c0,0,0,0,0,0v0c0.1,0,0.2-0.1,0.4-0.1c0,0,0,0,0,0c0.3-0.1,0.6,0,0.9,0
		c0.1,0,0.2,0,0.3,0.1c0.1,0,0.2,0.1,0.3,0.1l0.1,0.1c0.1,0.1,0.2,0.1,0.3,0.2c0,0,0.1,0.1,0.1,0.1c0,0,0.1,0.1,0.1,0.1l0.1,0.1
		c0.1,0.1,0.1,0.2,0.2,0.2c0,0,0,0,0,0c0,0,0,0,0,0l0,0c0.1,0.1,0.1,0.2,0.2,0.2c0,0,0.1,0.1,0.1,0.2c0,0,0.1,0.1,0.1,0.2
		c0,0,0,0,0,0.1c0.1,0.3,0.1,0.6,0.1,0.9c0,0.7-0.3,1.3-0.7,1.8c-0.4,0.4-1,0.7-1.5,0.7L24.7,50z M23.4,47c0,0.1-0.1,0.3-0.1,0.4
		c0,0.4,0.2,0.9,0.5,1.2c0.3,0.3,0.6,0.4,1,0.5l0.5,0c0.3,0,0.6-0.2,0.9-0.4c0.3-0.3,0.5-0.8,0.5-1.2c0-0.2,0-0.4-0.1-0.6
		c0,0,0,0,0,0c0-0.1,0-0.1,0-0.1c0,0,0-0.1,0-0.1c0,0,0-0.1,0-0.1c0,0-0.1-0.1-0.1-0.1c0,0,0,0,0,0c0,0,0,0,0,0
		c0-0.1-0.1-0.1-0.1-0.2c0,0-0.1-0.1-0.1-0.1c0,0,0,0-0.1,0L26,46.1c-0.1,0-0.1-0.1-0.2-0.1l-0.1,0c0,0-0.1,0-0.1-0.1
		c-0.1,0-0.1,0-0.2,0c-0.2-0.1-0.5,0-0.5,0c0,0-0.1,0-0.1,0c0,0,0,0,0,0c0,0-0.1,0-0.1,0c0,0,0,0,0,0c0,0,0,0,0,0l-0.1,0
		c0,0-0.1,0-0.1,0.1c0,0,0,0,0,0l0,0c-0.1,0-0.1,0.1-0.2,0.1c0,0,0,0,0,0c-0.1,0-0.1,0.1-0.2,0.1c-0.1,0.1-0.1,0.1-0.2,0.2
		c-0.1,0.1-0.2,0.3-0.2,0.4C23.4,46.9,23.4,47,23.4,47z"/>
	<path fill="#FFFFFF" d="M22.1,46.2c-0.1,0-0.1,0-0.2,0L6.6,39.4c-0.2-0.1-0.3-0.3-0.3-0.5l0-0.1c0-0.2,0.1-0.4,0.1-0.6
		c0-0.8-0.3-1.5-0.8-2c-0.3-0.3-0.6-0.5-0.9-0.6c-0.1,0-0.2-0.1-0.3-0.1c-0.1,0-0.1,0-0.2,0c0,0-0.1,0-0.1,0c-0.2,0-0.4-0.2-0.4-0.5
		V14.6c0-0.2,0.2-0.4,0.4-0.4c0.4-0.1,0.7-0.2,1-0.4c0.3-0.2,0.6-0.5,0.8-0.8c0.1-0.2,0.4-0.2,0.6-0.2l18.1,8
		c0.2,0.1,0.3,0.2,0.3,0.4v23c0,0.2-0.1,0.4-0.3,0.4c0,0,0,0-0.1,0v0c-0.1,0-0.2,0-0.3,0.1c-0.1,0-0.2,0.1-0.3,0.1c0,0,0,0-0.1,0
		c-0.3,0.1-0.6,0.3-0.9,0.6c0,0,0,0.1-0.1,0.1c-0.1,0.1-0.3,0.3-0.4,0.5C22.5,46.1,22.3,46.2,22.1,46.2z M7.3,38.7L22,45.2
		c0.1-0.1,0.2-0.2,0.2-0.3c0,0,0.1-0.1,0.1-0.1c0.4-0.4,0.8-0.6,1.2-0.8c0,0,0,0,0,0c0.1-0.1,0.2-0.1,0.4-0.1c0,0,0,0,0,0V21.5
		L6.4,13.7c-0.2,0.3-0.5,0.5-0.8,0.7c-0.3,0.2-0.6,0.4-1,0.5v19.6c0,0,0,0,0,0c0.1,0,0.2,0.1,0.4,0.1c0.5,0.2,0.9,0.5,1.2,0.8
		c0.7,0.7,1.1,1.7,1.1,2.7C7.3,38.3,7.3,38.5,7.3,38.7z M4.3,34.9L4.3,34.9L4.3,34.9L4.3,34.9z"/>
	<path fill="#FFFFFF" d="M3.5,13.5c-0.7,0-1.3-0.3-1.8-0.8C1.2,12.2,1,11.6,1,10.9c0-0.7,0.3-1.3,0.7-1.8c0.5-0.5,1.1-0.7,1.8-0.7
		c0.7,0,1.3,0.3,1.8,0.7C5.6,9.4,5.8,9.7,5.9,10c0.1,0.3,0.2,0.6,0.2,0.9c0,0.7-0.3,1.3-0.7,1.8C4.8,13.2,4.2,13.5,3.5,13.5z
		 M3.5,9.2c-0.4,0-0.9,0.2-1.2,0.5C2,10,1.9,10.4,1.9,10.9c0,0.4,0.2,0.9,0.5,1.2c0.6,0.6,1.7,0.6,2.3,0c0.3-0.3,0.5-0.8,0.5-1.2
		c0-0.2,0-0.4-0.1-0.6c0,0,0,0,0,0C5,10.1,4.9,9.9,4.7,9.7C4.4,9.4,4,9.2,3.5,9.2z"/>
</g>
</svg>
