<?xml version="1.0" encoding="utf-8"?>
<!-- Generator: Adobe Illustrator 24.0.0, SVG Export Plug-In . SVG Version: 6.00 Build 0)  -->
<svg version="1.1" id="Layer_1" xmlns="http://www.w3.org/2000/svg" xmlns:xlink="http://www.w3.org/1999/xlink" x="0px" y="0px"
	 viewBox="0 0 50 50" enable-background="new 0 0 50 50" xml:space="preserve">
<g id="XMLID_1347_">
	<path id="XMLID_1352_" fill="#FFFFFF" d="M25,4.5c6.7,0,7.5,0,10.1,0.1c2.4,0.1,3.8,0.5,4.6,0.9c1.2,0.5,2,1,2.9,1.9
		c0.9,0.9,1.4,1.7,1.9,2.9c0.3,0.9,0.7,2.2,0.9,4.6c0.1,2.6,0.1,3.4,0.1,10.1c0,6.7,0,7.5-0.1,10.1c-0.1,2.4-0.5,3.8-0.9,4.6
		c-0.5,1.2-1,2-1.9,2.9c-0.9,0.9-1.7,1.4-2.9,1.9c-0.9,0.3-2.2,0.7-4.6,0.9c-2.6,0.1-3.4,0.1-10.1,0.1c-6.7,0-7.5,0-10.1-0.1
		c-2.4-0.1-3.8-0.5-4.6-0.9c-1.2-0.5-2-1-2.9-1.9c-0.9-0.9-1.4-1.7-1.9-2.9c-0.3-0.9-0.7-2.2-0.9-4.6C4.5,32.5,4.5,31.7,4.5,25
		c0-6.7,0-7.5,0.1-10.1c0.1-2.4,0.5-3.8,0.9-4.6c0.5-1.2,1-2,1.9-2.9C8.3,6.5,9.1,6,10.3,5.5c0.9-0.3,2.2-0.7,4.6-0.9
		C17.5,4.5,18.3,4.5,25,4.5 M25,0c-6.8,0-7.6,0-10.3,0.2C12,0.3,10.2,0.7,8.6,1.3C7,2,5.6,2.8,4.2,4.2C2.8,5.6,2,7,1.3,8.6
		c-0.6,1.6-1,3.4-1.2,6.1C0,17.4,0,18.2,0,25s0,7.6,0.2,10.3c0.1,2.7,0.5,4.5,1.2,6.1c0.6,1.6,1.5,3,2.9,4.4C5.6,47.2,7,48,8.6,48.7
		c1.6,0.6,3.4,1,6.1,1.2C17.4,50,18.2,50,25,50c6.8,0,7.6,0,10.3-0.2c2.7-0.1,4.5-0.5,6.1-1.2c1.6-0.6,3-1.5,4.4-2.9
		c1.4-1.4,2.2-2.8,2.9-4.4c0.6-1.6,1-3.4,1.2-6.1C50,32.6,50,31.8,50,25s0-7.6-0.2-10.3c-0.1-2.7-0.5-4.5-1.2-6.1
		c-0.6-1.6-1.5-3-2.9-4.4C44.4,2.8,43,2,41.4,1.3c-1.6-0.6-3.4-1-6.1-1.2C32.6,0,31.8,0,25,0"/>
	<path id="XMLID_1349_" fill="#FFFFFF" d="M25,12.2c-7.1,0-12.8,5.7-12.8,12.8c0,7.1,5.7,12.8,12.8,12.8c7.1,0,12.8-5.7,12.8-12.8
		C37.8,17.9,32.1,12.2,25,12.2 M25,33.3c-4.6,0-8.3-3.7-8.3-8.3c0-4.6,3.7-8.3,8.3-8.3c4.6,0,8.3,3.7,8.3,8.3
		C33.3,29.6,29.6,33.3,25,33.3"/>
	<path id="XMLID_1348_" fill="#FFFFFF" d="M41.3,11.7c0,1.7-1.3,3-3,3c-1.7,0-3-1.3-3-3c0-1.7,1.3-3,3-3C40,8.7,41.3,10,41.3,11.7"
		/>
</g>
</svg>
