<?xml version="1.0" encoding="utf-8"?>
<!-- Generator: Adobe Illustrator 24.0.0, SVG Export Plug-In . SVG Version: 6.00 Build 0)  -->
<svg version="1.1" id="Layer_1" xmlns="http://www.w3.org/2000/svg" xmlns:xlink="http://www.w3.org/1999/xlink" x="0px" y="0px"
	 viewBox="0 0 50 50" enable-background="new 0 0 50 50" xml:space="preserve">
<g>
	<g>
		<g>
			<path fill="#FFFFFF" d="M28.8,20.5c0-0.8-0.7-1.5-1.5-1.5h-6.1c-0.8,0-1.5,0.7-1.5,1.5v21.2h9.1V20.5z M41.7,23.5
				c0-0.8-0.7-1.5-1.5-1.5h-6.1c-0.8,0-1.5,0.7-1.5,1.5v18.2h9.1V23.5z M47.7,45.5H2.3c-1.3,0-2.3,1-2.3,2.3C0,49,1,50,2.3,50h45.5
				c1.3,0,2.3-1,2.3-2.3C50,46.5,49,45.5,47.7,45.5z M15.9,28c0-0.8-0.7-1.5-1.5-1.5H8.3c-0.8,0-1.5,0.7-1.5,1.5v13.6h9.1V28z"/>
			<path fill="#FFFFFF" d="M43.9,0l-6.8,1c-1.1,0.2-1.5,1.5-0.8,2.3l1.6,1.6l-5.5,5.5l-9-6.8c-0.8-0.6-2-0.6-2.8,0.1L6.1,15.4
				c-1,0.8-1.1,2.2-0.3,3.2c0.4,0.5,1.1,0.8,1.8,0.8c0.5,0,1-0.2,1.4-0.5L22,8.2l9.2,7c0.9,0.7,2.2,0.6,3-0.2l6.9-6.9l1.1,1.1
				c0.8,0.8,2.1,0.3,2.3-0.8l1-6.8C45.5,0.6,44.8-0.1,43.9,0z"/>
		</g>
	</g>
</g>
</svg>
