<?xml version="1.0" encoding="utf-8"?>
<!-- Generator: Adobe Illustrator 24.0.0, SVG Export Plug-In . SVG Version: 6.00 Build 0)  -->
<svg version="1.1" id="Layer_1" xmlns="http://www.w3.org/2000/svg" xmlns:xlink="http://www.w3.org/1999/xlink" x="0px" y="0px"
	 viewBox="0 0 50 50" enable-background="new 0 0 50 50" xml:space="preserve">
<g>
	<g>
		<path fill="#FFFFFF" d="M40,23.7h8.6V16c0-1.5-1.2-2.7-2.7-2.7H27.8c-0.5,8.2-7.3,14.7-15.6,14.7c-3.1,0-6.1-0.9-8.5-2.5v19.2
			c0,3,2.4,5.4,5.4,5.4h36.8c1.5,0,2.7-1.2,2.7-2.7v-6.8H40c-4.6,0-8.4-3.8-8.4-8.4C31.6,27.5,35.4,23.7,40,23.7z M44.6,9.2V6.4
			c0-1.5-1.2-2.7-2.7-2.7H25.3c1.1,1.6,1.8,3.5,2.2,5.4H44.6z"/>
		<path fill="#FFFFFF" d="M12.2,0C5.5,0,0,5.5,0,12.3C0,19,5.5,24.5,12.2,24.5S24.5,19,24.5,12.3C24.5,5.5,19,0,12.2,0z M11.6,9.9
			l2.8,1.4c1.7,0.9,2.5,2.6,2.2,4.4c-0.2,1.4-1.1,2.6-2.4,3.1v0.4c0,0.9-0.8,1.7-1.7,1.7c-0.9,0-1.7-0.8-1.7-1.7V19
			c-1.3-0.4-2.4-1.4-3-2.8c-0.4-0.9,0-1.9,0.9-2.2c0.9-0.4,1.9,0,2.2,0.9c0.3,0.6,0.9,1,1.6,1c0.5-0.1,0.7-0.4,0.7-0.6
			c0-0.1,0.1-0.6-0.4-0.9l-2.8-1.4c-1.7-0.9-2.6-2.7-2.2-4.5c0.3-1.6,1.4-2.8,3-3.3V4.5c0-0.9,0.8-1.7,1.7-1.7
			c0.9,0,1.7,0.8,1.7,1.7v1.1C15.3,6,16.2,6.9,16.7,8c0.4,0.9,0,1.9-0.9,2.2c-0.9,0.4-1.9,0-2.2-0.9c-0.3-0.6-1-1-1.6-1
			c-0.5,0.1-0.6,0.4-0.7,0.6C11.2,9.2,11.2,9.7,11.6,9.9z M49.3,27.1H40c-2.8,0-5,2.2-5,5c0,2.8,2.2,5,5,5h9.3
			c0.4,0,0.7-0.3,0.7-0.7v-8.6C50,27.4,49.7,27.1,49.3,27.1z M41.2,34.1c-1.1,0-2-0.9-2-2c0-1.1,0.9-2,2-2s2,0.9,2,2
			C43.2,33.2,42.3,34.1,41.2,34.1z"/>
	</g>
</g>
</svg>
