<?xml version="1.0" encoding="utf-8"?>
<!-- Generator: Adobe Illustrator 24.0.0, SVG Export Plug-In . SVG Version: 6.00 Build 0)  -->
<svg version="1.1" id="Layer_1" xmlns="http://www.w3.org/2000/svg" xmlns:xlink="http://www.w3.org/1999/xlink" x="0px" y="0px"
	 viewBox="0 0 50 50" enable-background="new 0 0 50 50" xml:space="preserve">
<g>
	<g>
		<path fill="#FFFFFF" d="M43.9,14.7c-0.2,0-0.4,0-0.6,0.1C41.3,6.4,33.8,0.1,25,0.1c-8.9,0-16.3,6.3-18.3,14.6
			c-0.2,0-0.3-0.1-0.5-0.1c-2,0-3.6,1.6-3.6,3.6v4.3c0,2,1.6,3.6,3.6,3.6c0.4,0,0.8-0.1,1.2-0.2c1,2.6,3.6,4.5,6.6,4.5
			c0.8,0,1.4-0.6,1.4-1.4c0-0.8-0.6-1.4-1.4-1.4c-2.4,0-4.3-1.9-4.3-4.3v-4.5C10,10.4,16.7,3.7,25,3.7c8.4,0,15.3,7,15.3,15.6
			c0,0,0,0.1,0,0.1v3.1c0,2,1.6,3.6,3.6,3.6c2,0,3.6-1.6,3.6-3.6v-4.3C47.4,16.3,45.8,14.7,43.9,14.7z"/>
		<path fill="#FFFFFF" d="M36.7,34.6h-4.2c-0.9,0-1.8,0.5-2.3,1.2L27.2,40c-1.1,1.6-3.6,1.6-4.7,0l-2.8-4.1
			c-0.5-0.8-1.4-1.2-2.4-1.2h-4.1c-5.3,0-9.6,4.3-9.6,9.6v4.2c0,0.8,0.6,1.4,1.4,1.4h39.7c0.8,0,1.4-0.6,1.4-1.4v-4.2
			C46.2,38.9,41.9,34.6,36.7,34.6z M25,31.1c6.5,0,11.7-5.3,11.7-11.7c0-6.5-5.3-11.7-11.7-11.7c-6.5,0-11.7,5.3-11.7,11.7
			C13.2,25.8,18.5,31.1,25,31.1z"/>
	</g>
</g>
</svg>
