<?xml version="1.0" encoding="utf-8"?>
<!-- Generator: Adobe Illustrator 24.0.0, SVG Export Plug-In . SVG Version: 6.00 Build 0)  -->
<svg version="1.1" id="Layer_1" xmlns="http://www.w3.org/2000/svg" xmlns:xlink="http://www.w3.org/1999/xlink" x="0px" y="0px"
	 viewBox="0 0 50 50" enable-background="new 0 0 50 50" xml:space="preserve">
<g>
	<g>
		<path fill="#FFFFFF" d="M45.2,10.2c-7.9-1-15.5-6.9-18.6-9.6c-0.9-0.8-2.2-0.8-3.1,0c-3.2,2.8-10.8,8.7-18.6,9.6
			c-1.3,0.2-2.2,1.2-2.1,2.5c1,24,16.7,34.5,21.2,37c0.7,0.4,1.6,0.4,2.3,0c4.4-2.5,20.2-13,21.2-37C47.4,11.4,46.5,10.4,45.2,10.2z
			 M25,36.9c-6.6,0-11.9-5.3-11.9-11.9c0-6.6,5.3-11.9,11.9-11.9S36.9,18.4,36.9,25C36.9,31.6,31.6,36.9,25,36.9z"/>
		<polygon fill="#FFFFFF" points="30.3,19 23.2,26.1 19.7,22.6 17.3,25.1 20.7,28.5 23.2,31 25.7,28.6 32.7,21.5 		"/>
	</g>
</g>
</svg>
