<?xml version="1.0" encoding="utf-8"?>
<!-- Generator: Adobe Illustrator 24.0.0, SVG Export Plug-In . SVG Version: 6.00 Build 0)  -->
<svg version="1.1" id="Layer_1" xmlns="http://www.w3.org/2000/svg" xmlns:xlink="http://www.w3.org/1999/xlink" x="0px" y="0px"
	 viewBox="0 0 50 50" enable-background="new 0 0 50 50" xml:space="preserve">
<circle fill="#5579FA" cx="25" cy="25" r="25"/>
<g>
	<g>
		<path fill="#FFFFFF" d="M38.1,15.4C33,14.8,28.1,11,26,9.2c-0.6-0.5-1.4-0.5-2,0c-2,1.8-7,5.6-12.1,6.2c-0.8,0.1-1.4,0.8-1.4,1.6
			C11.2,32.5,21.4,39.3,24.3,41c0.5,0.3,1,0.3,1.5,0c2.9-1.6,13.1-8.4,13.7-23.9C39.5,16.2,38.9,15.5,38.1,15.4z M25,32.7
			c-4.2,0-7.7-3.4-7.7-7.7c0-4.2,3.4-7.7,7.7-7.7s7.7,3.4,7.7,7.7C32.7,29.2,29.2,32.7,25,32.7z"/>
		<polygon fill="#FFFFFF" points="28.4,21.1 23.8,25.7 21.6,23.5 20,25 22.2,27.3 23.8,28.9 25.4,27.3 30,22.7 		"/>
	</g>
</g>
</svg>
