<?xml version="1.0" encoding="utf-8"?>
<!-- Generator: Adobe Illustrator 24.0.0, SVG Export Plug-In . SVG Version: 6.00 Build 0)  -->
<svg version="1.1" id="Layer_1" xmlns="http://www.w3.org/2000/svg" xmlns:xlink="http://www.w3.org/1999/xlink" x="0px" y="0px"
	 viewBox="0 0 50 50" enable-background="new 0 0 50 50" xml:space="preserve">
<circle fill="#FEB82C" cx="25" cy="25" r="25"/>
<g>
	<g>
		<g>
			<path fill="#FFFFFF" d="M27.1,21.4c0-0.5-0.4-0.9-0.9-0.9h-3.4c-0.5,0-0.9,0.4-0.9,0.9v12h5.2V21.4z M34.5,23.1
				c0-0.5-0.4-0.9-0.9-0.9h-3.4c-0.5,0-0.9,0.4-0.9,0.9v10.3h5.2V23.1z M37.9,35.6H12.1c-0.7,0-1.3,0.6-1.3,1.3
				c0,0.7,0.6,1.3,1.3,1.3h25.8c0.7,0,1.3-0.6,1.3-1.3C39.2,36.2,38.6,35.6,37.9,35.6z M19.8,25.7c0-0.5-0.4-0.9-0.9-0.9h-3.4
				c-0.5,0-0.9,0.4-0.9,0.9v7.7h5.2V25.7z"/>
			<path fill="#FFFFFF" d="M35.7,9.8l-3.9,0.6c-0.6,0.1-0.9,0.8-0.4,1.3l0.9,0.9l-3.1,3.1l-5.1-3.9c-0.5-0.4-1.1-0.3-1.6,0l-8.2,6.7
				c-0.6,0.5-0.6,1.3-0.2,1.8c0.3,0.3,0.6,0.5,1,0.5c0.3,0,0.6-0.1,0.8-0.3l7.4-6.1l5.2,3.9c0.5,0.4,1.2,0.3,1.7-0.1l3.9-3.9
				l0.6,0.6c0.4,0.4,1.2,0.2,1.3-0.4l0.6-3.9C36.6,10.2,36.2,9.8,35.7,9.8z"/>
		</g>
	</g>
</g>
</svg>
