<?xml version="1.0" encoding="utf-8"?>
<!-- Generator: Adobe Illustrator 24.0.0, SVG Export Plug-In . SVG Version: 6.00 Build 0)  -->
<svg version="1.1" id="Layer_1" xmlns="http://www.w3.org/2000/svg" xmlns:xlink="http://www.w3.org/1999/xlink" x="0px" y="0px"
	 viewBox="0 0 50 50" enable-background="new 0 0 50 50" xml:space="preserve">
<circle fill="#FEB82C" cx="25" cy="25" r="25"/>
<g>
	<g>
		<path fill="#FFFFFF" d="M32.8,23.6h4.7v-4.2c0-0.8-0.7-1.5-1.5-1.5h-9.9c-0.3,4.5-4,8-8.5,8c-1.7,0-3.3-0.5-4.7-1.4V35
			c0,1.6,1.3,3,3,3h20.1c0.8,0,1.5-0.7,1.5-1.5v-3.7h-4.7c-2.5,0-4.6-2.1-4.6-4.6C28.2,25.6,30.3,23.6,32.8,23.6z M35.3,15.6v-1.5
			c0-0.8-0.7-1.5-1.5-1.5h-9c0.6,0.9,1,1.9,1.2,3H35.3z"/>
		<path fill="#FFFFFF" d="M17.6,10.6c-3.7,0-6.7,3-6.7,6.7c0,3.7,3,6.7,6.7,6.7s6.7-3,6.7-6.7C24.3,13.6,21.3,10.6,17.6,10.6z
			 M17.3,16l1.5,0.8c0.9,0.5,1.4,1.4,1.2,2.4c-0.1,0.8-0.6,1.4-1.3,1.7v0.2c0,0.5-0.4,0.9-0.9,0.9c-0.5,0-0.9-0.4-0.9-0.9V21
			c-0.7-0.2-1.3-0.8-1.7-1.5c-0.2-0.5,0-1,0.5-1.2c0.5-0.2,1,0,1.2,0.5c0.2,0.4,0.5,0.6,0.9,0.5c0.3,0,0.4-0.2,0.4-0.3
			c0-0.1,0-0.3-0.2-0.5l-1.5-0.8c-0.9-0.5-1.4-1.5-1.2-2.5c0.2-0.9,0.8-1.6,1.6-1.8V13c0-0.5,0.4-0.9,0.9-0.9c0.5,0,0.9,0.4,0.9,0.9
			v0.6c0.6,0.3,1.1,0.8,1.3,1.4c0.2,0.5,0,1-0.5,1.2c-0.5,0.2-1,0-1.2-0.5c-0.2-0.4-0.5-0.6-0.9-0.5c-0.3,0-0.4,0.2-0.4,0.3
			C17,15.6,17,15.9,17.3,16z M37.9,25.4h-5.1c-1.5,0-2.7,1.2-2.7,2.7c0,1.5,1.2,2.7,2.7,2.7h5.1c0.2,0,0.4-0.2,0.4-0.4v-4.7
			C38.3,25.6,38.1,25.4,37.9,25.4z M33.4,29.3c-0.6,0-1.1-0.5-1.1-1.1c0-0.6,0.5-1.1,1.1-1.1s1.1,0.5,1.1,1.1
			C34.6,28.8,34.1,29.3,33.4,29.3z"/>
	</g>
</g>
</svg>
