<?xml version="1.0" encoding="utf-8"?>
<!-- Generator: Adobe Illustrator 24.0.0, SVG Export Plug-In . SVG Version: 6.00 Build 0)  -->
<svg version="1.1" id="Layer_1" xmlns="http://www.w3.org/2000/svg" xmlns:xlink="http://www.w3.org/1999/xlink" x="0px" y="0px"
	 viewBox="0 0 50 50" enable-background="new 0 0 50 50" xml:space="preserve">
<circle fill="#5579FA" cx="25" cy="25" r="25"/>
<g>
	<g>
		<path fill="#FFFFFF" d="M35.8,18.1c-0.1,0-0.2,0-0.3,0c-1.2-4.8-5.4-8.4-10.5-8.4c-5.1,0-9.3,3.6-10.5,8.4c-0.1,0-0.2,0-0.3,0
			c-1.1,0-2,0.9-2,2v2.4c0,1.1,0.9,2,2,2c0.2,0,0.5-0.1,0.7-0.1c0.6,1.5,2.1,2.6,3.8,2.6c0.5,0,0.8-0.4,0.8-0.8
			c0-0.5-0.4-0.8-0.8-0.8c-1.3,0-2.4-1.1-2.4-2.4v-2.6c0.2-4.8,4-8.6,8.8-8.6c4.8,0,8.8,4,8.8,9c0,0,0,0,0,0.1v1.8c0,1.1,0.9,2,2,2
			s2-0.9,2-2v-2.4C37.8,19,36.9,18.1,35.8,18.1z"/>
		<path fill="#FFFFFF" d="M31.7,29.5h-2.4c-0.5,0-1,0.3-1.3,0.7l-1.7,2.4c-0.7,0.9-2,0.9-2.7,0L22,30.2c-0.3-0.4-0.8-0.7-1.3-0.7
			h-2.4c-3,0-5.5,2.5-5.5,5.5v2.4c0,0.5,0.4,0.8,0.8,0.8h22.7c0.5,0,0.8-0.4,0.8-0.8V35C37.2,32,34.7,29.5,31.7,29.5z M25,27.5
			c3.7,0,6.7-3,6.7-6.7c0-3.7-3-6.7-6.7-6.7c-3.7,0-6.7,3-6.7,6.7C18.3,24.4,21.3,27.5,25,27.5z"/>
	</g>
</g>
</svg>
